<?xml version="1.0" standalone="no"?>
<!DOCTYPE svg PUBLIC "-//W3C//DTD SVG 20010904//EN"
 "http://www.w3.org/TR/2001/REC-SVG-20010904/DTD/svg10.dtd">
<svg version="1.0" xmlns="http://www.w3.org/2000/svg"
 width="1000.000000pt" height="568.000000pt" viewBox="0 0 1000.000000 568.000000"
 preserveAspectRatio="xMidYMid meet">

<g transform="translate(0.000000,568.000000) scale(0.100000,-0.100000)"
fill="#000000" stroke="none">
<path d="M2175 4775 c-400 -65 -725 -297 -899 -643 -140 -277 -180 -712 -100
-1070 116 -517 483 -859 1007 -936 264 -40 569 -6 742 82 104 52 239 163 299
247 13 18 15 17 25 -25 33 -129 76 -196 148 -231 41 -21 65 -24 176 -27 l129
-4 -3 691 -4 691 -572 0 -573 0 0 -110 c0 -77 5 -122 15 -148 18 -42 86 -116
128 -138 l27 -15 0 -123 0 -124 -37 -14 c-25 -8 -87 -13 -178 -13 -138 0 -141
1 -206 32 -121 60 -208 186 -245 353 -25 112 -23 303 4 405 47 174 148 321
263 381 52 28 59 29 189 28 132 0 192 -12 301 -58 11 -5 26 8 53 49 l37 56
-53 23 c-111 48 -215 69 -348 69 -224 1 -371 -63 -496 -214 -257 -313 -230
-879 54 -1130 51 -45 116 -81 202 -112 108 -39 389 -34 583 9 l67 16 0 174 0
174 130 0 c149 0 145 4 114 -101 -86 -290 -328 -459 -656 -459 -499 0 -789
324 -791 885 -1 167 12 257 54 390 69 218 210 378 400 454 107 43 188 54 352
48 227 -7 341 -49 460 -169 40 -40 88 -95 107 -123 23 -33 54 -60 90 -80 l55
-30 229 -3 229 -4 -7 46 c-9 60 -46 166 -81 236 -145 286 -414 472 -800 551
-134 28 -486 35 -620 14z m413 -95 c16 -37 21 -40 65 -46 26 -4 47 -10 47 -13
0 -4 -14 -20 -31 -37 -29 -27 -30 -32 -24 -81 4 -29 4 -53 0 -53 -3 0 -24 9
-46 20 l-40 21 -33 -21 c-18 -11 -36 -20 -40 -20 -4 0 -5 23 -3 51 4 46 2 55
-24 82 -35 37 -36 47 -5 47 44 0 71 17 86 54 7 20 18 36 23 36 4 0 16 -18 25
-40z m-807 -230 c20 -43 27 -50 58 -55 92 -15 89 -11 41 -60 l-44 -45 11 -52
c6 -29 9 -56 6 -61 -2 -4 -26 4 -52 19 l-48 26 -53 -27 c-28 -14 -54 -25 -56
-22 -2 2 1 29 7 61 l12 57 -43 44 c-47 47 -47 47 37 60 38 6 43 10 62 56 12
27 26 49 30 49 5 0 20 -22 32 -50z m1552 -155 c14 -29 22 -35 47 -35 35 0 40
-19 9 -38 -17 -11 -20 -21 -17 -53 4 -42 -5 -48 -37 -25 -17 12 -23 12 -47 0
-37 -19 -38 -19 -38 24 0 26 -7 45 -20 57 -28 25 -25 33 13 37 25 2 35 10 47
35 8 18 18 33 21 33 3 0 13 -16 22 -35z m-1868 -684 c26 -56 31 -60 69 -66 72
-11 96 -16 96 -23 0 -3 -21 -28 -47 -54 l-47 -48 10 -70 10 -71 -24 6 c-13 3
-41 17 -62 30 l-39 25 -60 -32 c-33 -18 -63 -29 -66 -26 -3 3 -1 36 6 73 l11
67 -48 49 c-26 27 -45 51 -42 54 3 3 33 10 67 16 l62 11 30 59 c16 33 33 59
37 59 5 0 21 -27 37 -59z m1866 -733 c11 -26 21 -34 47 -36 38 -4 39 -8 10
-39 -16 -17 -22 -34 -19 -59 l3 -35 -32 16 c-29 15 -34 15 -55 1 -34 -22 -37
-21 -34 19 3 24 -3 41 -19 58 -29 31 -28 35 11 39 25 2 35 10 47 35 8 18 18
33 21 33 3 0 12 -15 20 -32z m-1551 -171 c24 -50 27 -52 78 -61 28 -5 52 -12
52 -17 0 -4 -16 -22 -36 -41 -35 -33 -36 -34 -30 -95 4 -35 4 -63 1 -63 -4 0
-26 12 -50 26 l-44 26 -51 -28 c-27 -15 -52 -25 -54 -23 -2 2 1 30 6 62 l10
57 -36 37 c-20 21 -36 41 -36 44 0 4 24 11 53 14 52 7 52 7 76 61 13 30 26 54
30 54 3 -1 17 -24 31 -53z m809 -266 c16 -31 27 -40 58 -46 56 -10 58 -14 22
-51 -29 -30 -31 -37 -26 -78 7 -52 2 -55 -45 -26 -32 19 -32 19 -66 0 -48 -29
-53 -26 -46 28 5 43 3 49 -25 76 -17 17 -31 33 -31 37 0 4 20 10 45 13 40 6
48 12 65 47 11 21 22 39 25 39 3 0 14 -17 24 -39z"/>
<path d="M3930 3884 l0 -149 185 0 185 0 0 65 c0 83 -13 126 -47 163 -48 50
-79 60 -205 65 l-118 5 0 -149z"/>
<path d="M7368 4023 c6 -2 18 -2 25 0 6 3 1 5 -13 5 -14 0 -19 -2 -12 -5z"/>
<path d="M7541 4008 c0 -13 3 -18 5 -13 6 14 84 6 85 -9 0 -6 0 -59 -1 -118
l-1 -108 25 0 25 0 3 118 3 117 43 0 c32 0 42 4 40 15 -3 12 -25 16 -116 18
-111 3 -112 2 -111 -20z"/>
<path d="M7940 4020 l115 -6 -112 -2 c-62 -1 -113 -5 -113 -9 0 -5 22 -6 50
-5 l50 4 2 -124 2 -123 6 85 6 85 2 -82 c2 -70 5 -83 18 -83 15 0 16 12 12
105 -4 63 -11 112 -19 123 -9 12 -9 14 0 6 8 -7 27 -8 54 -3 23 4 45 8 48 9 3
0 6 7 6 15 0 13 -20 15 -121 13 l-121 -2 115 -6z"/>
<path d="M8530 3883 l0 -148 186 3 187 3 -6 78 c-11 161 -77 211 -282 211
l-85 0 0 -147z"/>
<path d="M7350 3885 c0 -117 1 -125 19 -125 18 0 20 9 23 125 3 124 3 125 -19
125 -23 0 -23 -2 -23 -125z"/>
<path d="M7470 3780 c0 -11 7 -20 15 -20 8 0 15 9 15 20 0 11 -7 20 -15 20 -8
0 -15 -9 -15 -20z"/>
<path d="M7760 3780 c0 -13 7 -20 20 -20 13 0 20 7 20 20 0 13 -7 20 -20 20
-13 0 -20 -7 -20 -20z"/>
<path d="M8072 3780 c0 -14 2 -19 5 -12 2 6 2 18 0 25 -3 6 -5 1 -5 -13z"/>
<path d="M4918 3614 c-89 -19 -149 -45 -222 -98 -130 -93 -203 -225 -241 -440
-36 -200 -2 -478 76 -633 120 -238 466 -359 775 -273 115 32 170 64 250 144
114 114 172 251 195 462 27 240 -32 486 -151 636 -80 102 -201 174 -335 203
-88 18 -259 18 -347 -1z m259 -299 c172 -51 256 -278 209 -566 -18 -108 -42
-164 -97 -224 -50 -54 -81 -72 -144 -84 -84 -16 -202 23 -252 84 -66 77 -97
220 -91 409 8 225 65 327 209 377 66 23 101 23 166 4z"/>
<path d="M7445 3624 c-129 -20 -255 -84 -331 -168 -213 -234 -247 -752 -69
-1031 132 -207 344 -310 563 -275 106 17 175 52 250 128 l62 64 0 -54 c0 -134
-39 -253 -105 -321 -28 -30 -42 -37 -58 -33 -12 4 -96 9 -187 13 l-165 6 -30
31 -30 31 -189 -3 -188 -2 6 -23 c19 -70 28 -62 -91 -82 -265 -43 -503 -117
-838 -262 -121 -52 -317 -137 -436 -188 -118 -52 -267 -112 -330 -134 -63 -22
-106 -40 -96 -40 43 -2 360 77 699 173 580 166 732 194 1076 203 l222 6 59
-32 c103 -54 194 -72 366 -70 140 1 155 0 225 -26 195 -70 403 -193 527 -308
l64 -61 32 19 c18 11 124 80 236 153 l204 135 -24 19 c-135 107 -389 246 -569
312 -52 19 -94 38 -92 43 1 4 17 49 35 98 l32 90 0 545 c0 539 0 546 -23 625
-48 165 -114 247 -260 323 -127 66 -234 93 -387 97 -71 2 -143 1 -160 -1z
m273 -320 c75 -31 143 -122 178 -239 25 -82 25 -284 0 -375 -56 -205 -209
-290 -416 -230 -85 24 -160 132 -180 260 -42 272 40 533 184 584 56 20 187 20
234 0z"/>
<path d="M3930 2885 l0 -715 185 0 185 0 0 640 c0 554 -2 646 -15 677 -37 89
-88 112 -242 113 l-113 0 0 -715z"/>
<path d="M6565 3586 c-187 -30 -305 -84 -410 -191 -89 -89 -132 -175 -171
-340 -4 -16 -9 -222 -11 -457 l-4 -428 185 0 185 0 3 423 c3 468 4 472 72 545
59 64 151 92 299 92 l67 0 -2 185 -3 185 -65 -1 c-36 -1 -101 -7 -145 -13z"/>
<path d="M8530 2885 l0 -715 185 0 185 0 0 628 c0 407 -4 640 -11 665 -13 47
-63 106 -106 123 -21 9 -73 14 -143 14 l-110 0 0 -715z"/>
<path d="M2378 1935 c-320 -39 -620 -135 -878 -282 -102 -58 -252 -162 -257
-178 -1 -5 94 -73 212 -150 118 -77 221 -144 229 -149 10 -7 31 6 77 48 201
182 508 327 823 391 193 39 324 48 580 42 343 -8 495 -37 1056 -197 373 -106
675 -181 724 -180 6 1 -54 25 -134 54 -80 29 -235 92 -345 141 -555 244 -682
295 -885 354 -149 43 -387 89 -548 106 -167 18 -506 18 -654 0z"/>
<path d="M2630 1094 l0 -196 116 4 116 3 29 33 c38 43 40 102 4 137 -13 14
-29 25 -35 25 -7 0 0 14 14 31 28 32 34 76 15 111 -18 33 -71 48 -169 48 l-90
0 0 -196z m216 131 c41 -56 -6 -105 -101 -105 -72 0 -73 2 -67 79 l4 53 75 -4
c60 -3 78 -7 89 -23z m9 -170 c14 -13 25 -34 25 -45 0 -11 -11 -32 -25 -45
-21 -22 -33 -25 -98 -25 -40 0 -76 2 -78 4 -2 2 -2 34 -1 70 l4 66 74 0 c66 0
78 -3 99 -25z"/>
<path d="M4012 1268 c2 -15 10 -23 23 -23 13 0 21 8 23 23 3 18 -1 22 -23 22
-22 0 -26 -4 -23 -22z"/>
<path d="M5450 1219 l0 -70 -22 15 c-29 21 -97 20 -127 0 -69 -49 -66 -204 6
-251 31 -20 100 -19 124 3 17 16 19 16 19 1 0 -10 8 -17 20 -17 19 0 20 7 20
195 0 188 -1 195 -20 195 -18 0 -20 -7 -20 -71z m-31 -86 c51 -41 45 -155 -10
-196 -68 -50 -138 47 -109 152 6 22 18 45 28 50 26 16 68 13 91 -6z"/>
<path d="M5952 1268 c2 -15 10 -23 22 -23 13 0 20 8 21 23 1 17 -4 22 -22 22
-20 0 -24 -5 -21 -22z"/>
<path d="M7180 1264 c0 -33 33 -30 38 4 3 17 -2 22 -17 22 -16 0 -21 -6 -21
-26z"/>
<path d="M3340 1040 c0 -133 1 -140 20 -140 18 0 20 7 21 83 0 45 5 98 12 117
10 30 17 35 47 38 59 6 64 42 6 42 -23 0 -38 -7 -49 -22 l-16 -23 0 23 c-1 15
-7 22 -21 22 -19 0 -20 -7 -20 -140z"/>
<path d="M4010 1041 l0 -141 25 0 26 0 -3 138 c-3 134 -4 137 -25 140 -23 3
-23 3 -23 -137z"/>
<path d="M4570 1040 c0 -131 1 -140 19 -140 17 0 19 10 23 106 3 97 5 107 27
125 27 22 69 25 96 5 15 -11 19 -31 23 -125 4 -102 6 -111 24 -111 19 0 19 6
16 121 -3 113 -5 122 -27 140 -32 26 -100 25 -135 -2 l-26 -20 0 20 c0 14 -6
21 -20 21 -19 0 -20 -7 -20 -140z"/>
<path d="M5951 1040 c1 -140 1 -140 24 -140 l24 0 0 140 0 140 -25 0 -25 0 2
-140z"/>
<path d="M6525 1155 c-51 -50 -22 -96 80 -129 60 -19 70 -26 73 -48 4 -32 -19
-50 -65 -50 -28 0 -43 7 -60 26 -40 47 -74 24 -35 -23 37 -47 148 -45 190 4
45 53 20 92 -80 125 -78 25 -94 39 -78 69 15 29 82 29 110 1 23 -23 50 -26 50
-6 0 30 -50 56 -107 56 -44 0 -58 -5 -78 -25z"/>
<path d="M7180 1040 c0 -133 1 -140 20 -140 19 0 20 7 20 140 0 133 -1 140
-20 140 -19 0 -20 -7 -20 -140z"/>
</g>
</svg>
