<?xml version="1.0" standalone="no"?>
<!DOCTYPE svg PUBLIC "-//W3C//DTD SVG 20010904//EN"
 "http://www.w3.org/TR/2001/REC-SVG-20010904/DTD/svg10.dtd">
<svg version="1.0" xmlns="http://www.w3.org/2000/svg"
 width="377.000000pt" height="380.000000pt" viewBox="0 0 377.000000 380.000000"
 preserveAspectRatio="xMidYMid meet">

<g transform="translate(0.000000,380.000000) scale(0.100000,-0.100000)"
fill="#000000" stroke="none">
<path d="M1717 3709 c-463 -38 -920 -272 -1213 -622 -413 -492 -539 -1136
-339 -1735 219 -655 792 -1123 1484 -1213 188 -24 473 -6 663 42 443 112 845
407 1089 799 196 316 292 714 260 1077 -50 569 -336 1053 -806 1365 -248 164
-539 262 -850 288 -133 11 -147 11 -288 -1z m143 -79 c14 -8 25 -7 40 2 16 10
24 10 40 1 11 -7 32 -10 50 -7 17 4 36 2 44 -5 7 -6 26 -8 45 -5 18 4 37 2 45
-5 8 -7 25 -9 39 -6 16 4 34 1 50 -9 13 -9 32 -14 41 -10 9 3 27 -1 41 -10 13
-9 37 -16 53 -16 16 0 35 -7 42 -15 7 -9 22 -12 39 -9 20 4 30 1 34 -10 4 -10
19 -16 41 -16 25 0 38 -6 46 -20 6 -11 21 -20 34 -20 13 0 31 -9 41 -20 10
-11 30 -20 44 -20 15 0 31 -8 39 -20 7 -11 21 -20 32 -20 11 0 30 -11 42 -25
12 -14 32 -25 44 -25 12 0 29 -11 38 -25 9 -14 23 -25 31 -25 8 0 22 -11 31
-25 10 -15 26 -25 41 -25 18 0 27 -8 34 -29 6 -18 20 -32 34 -35 13 -3 27 -15
30 -27 4 -11 20 -25 36 -31 17 -6 29 -17 29 -28 0 -10 11 -25 25 -34 14 -9 25
-23 25 -31 0 -7 14 -23 30 -35 19 -14 30 -30 30 -46 0 -17 8 -27 25 -34 18 -7
25 -17 25 -35 0 -17 8 -29 25 -37 25 -11 29 -18 26 -49 -1 -9 10 -24 24 -33
19 -13 24 -22 19 -40 -4 -19 0 -28 20 -41 20 -13 24 -23 20 -40 -4 -17 0 -27
15 -37 12 -7 21 -23 21 -36 0 -13 9 -35 19 -48 11 -13 17 -33 14 -43 -3 -10 2
-30 11 -44 9 -13 14 -31 10 -40 -3 -8 2 -27 11 -41 10 -14 14 -33 11 -42 -3
-8 1 -28 9 -43 7 -15 11 -38 8 -50 -3 -12 1 -29 9 -39 10 -12 14 -38 13 -87
-1 -38 3 -76 8 -83 7 -9 7 -24 -2 -47 -9 -27 -9 -38 1 -54 10 -16 9 -25 -1
-45 -12 -21 -12 -28 -1 -41 11 -13 11 -20 -1 -42 -8 -14 -12 -37 -11 -50 2
-13 -2 -31 -9 -39 -9 -11 -9 -21 -1 -39 9 -19 7 -28 -9 -49 -15 -19 -18 -30
-10 -44 7 -14 6 -25 -6 -41 -8 -12 -13 -33 -10 -47 2 -15 -3 -32 -15 -46 -10
-12 -16 -29 -13 -38 3 -9 -4 -25 -15 -35 -15 -14 -19 -26 -15 -46 5 -22 2 -31
-14 -41 -13 -8 -21 -23 -21 -39 0 -14 -9 -34 -20 -44 -11 -10 -20 -30 -20 -45
0 -19 -8 -33 -26 -45 -15 -10 -23 -22 -20 -31 3 -8 -5 -21 -19 -30 -15 -10
-25 -26 -25 -40 0 -16 -8 -28 -25 -36 -16 -7 -25 -19 -25 -35 0 -15 -9 -27
-26 -35 -15 -7 -27 -23 -31 -40 -3 -17 -16 -33 -32 -41 -14 -7 -27 -22 -29
-34 -2 -13 -12 -23 -25 -25 -13 -2 -23 -12 -27 -28 -4 -15 -15 -26 -30 -30
-14 -3 -30 -17 -37 -30 -7 -14 -23 -27 -35 -30 -13 -3 -29 -17 -35 -32 -8 -15
-24 -28 -42 -31 -16 -4 -30 -14 -33 -25 -3 -11 -18 -21 -36 -25 -18 -4 -33
-14 -37 -27 -4 -14 -15 -20 -35 -20 -20 0 -35 -8 -46 -25 -9 -14 -26 -25 -39
-25 -12 0 -30 -9 -40 -20 -10 -11 -28 -20 -40 -20 -11 0 -30 -7 -41 -15 -10
-8 -27 -15 -37 -15 -11 0 -30 -9 -44 -20 -16 -12 -34 -18 -47 -14 -14 3 -28
-1 -35 -10 -8 -9 -28 -16 -46 -16 -18 0 -38 -7 -45 -15 -9 -11 -22 -14 -42
-10 -16 4 -35 2 -42 -4 -8 -6 -27 -11 -43 -9 -16 1 -35 -2 -43 -8 -14 -8 -58
-13 -139 -14 -18 0 -40 -5 -48 -11 -10 -9 -20 -9 -39 0 -18 8 -31 8 -45 0 -15
-7 -24 -7 -34 1 -8 7 -28 9 -49 5 -19 -4 -41 -3 -48 2 -7 4 -31 9 -53 10 -92
6 -111 9 -133 21 -13 8 -31 11 -39 8 -9 -4 -27 1 -40 9 -13 9 -34 15 -47 13
-12 -1 -35 5 -50 15 -15 10 -35 15 -45 12 -10 -3 -29 3 -43 14 -14 11 -33 18
-44 15 -12 -3 -27 3 -38 15 -11 12 -29 21 -42 21 -13 0 -28 9 -34 20 -7 13
-21 20 -38 20 -15 0 -35 9 -45 20 -9 11 -26 20 -37 20 -11 0 -27 11 -36 25
-11 17 -25 25 -45 25 -22 0 -32 6 -39 24 -6 17 -18 26 -37 28 -20 2 -29 9 -31
25 -2 15 -13 24 -32 28 -19 4 -30 13 -32 28 -2 14 -11 23 -26 25 -12 2 -29 16
-37 32 -8 16 -25 30 -37 32 -14 2 -24 12 -28 28 -3 14 -16 29 -28 35 -12 5
-26 22 -31 36 -5 15 -19 30 -30 34 -14 4 -21 15 -21 30 0 15 -11 32 -30 45
-16 12 -30 30 -30 40 0 11 -11 27 -25 36 -14 9 -25 26 -25 39 0 12 -9 30 -20
40 -11 10 -20 26 -20 35 0 9 -9 25 -20 35 -11 10 -20 31 -20 46 0 17 -8 34
-21 43 -15 10 -20 21 -16 36 3 13 -2 27 -14 39 -13 12 -19 29 -17 49 1 18 -5
39 -16 51 -10 11 -15 25 -11 31 4 6 -1 22 -10 36 -10 16 -14 35 -10 53 4 19 1
32 -10 41 -11 9 -14 22 -10 41 4 18 1 36 -9 51 -9 12 -13 31 -10 44 3 12 1 30
-4 40 -7 12 -6 25 0 40 8 17 7 32 -2 54 -10 24 -10 33 0 45 10 12 10 21 0 44
-9 23 -9 33 1 49 10 16 10 26 1 47 -10 22 -10 31 2 49 8 12 12 34 9 48 -3 14
0 29 6 32 7 5 9 22 5 45 -4 24 -2 41 5 45 6 4 11 25 11 46 0 21 5 42 10 45 6
3 10 23 10 45 0 24 5 40 15 44 9 3 15 18 15 34 0 16 7 35 15 42 8 7 15 27 15
44 0 21 7 36 21 44 15 10 19 20 15 37 -5 18 -1 27 14 35 14 7 20 21 20 44 0
21 6 36 15 40 9 3 23 22 31 41 8 19 19 35 25 35 5 0 16 15 24 33 7 17 22 37
33 44 10 6 22 25 25 41 4 18 14 33 27 37 11 3 20 14 20 22 0 9 27 42 60 73 33
31 60 62 60 68 0 6 11 14 25 18 14 3 32 19 40 34 8 15 25 30 38 34 13 3 29 17
35 31 8 17 20 25 36 25 15 0 30 8 36 19 5 11 20 23 32 27 12 4 31 17 41 30 10
13 29 24 42 24 14 0 29 9 35 20 6 11 21 20 34 20 12 0 32 11 45 24 15 16 29
22 48 18 17 -3 29 1 35 12 5 9 19 16 32 16 13 0 31 9 41 20 14 16 26 19 48 14
21 -4 33 -1 47 14 12 13 27 18 39 15 12 -3 31 3 47 16 21 16 30 18 46 10 15
-8 24 -7 38 6 12 11 26 14 44 9 19 -4 33 -1 46 11 17 15 24 16 46 7 18 -9 31
-9 46 -1 11 6 35 8 53 5 19 -4 36 -2 40 4 8 13 31 13 55 0z"/>
<path d="M1692 3573 c-28 -4 -31 -7 -21 -19 7 -9 16 -57 20 -107 6 -77 4 -94
-9 -104 -23 -19 -11 -24 43 -16 40 5 45 8 32 18 -12 8 -18 38 -23 113 -6 90
-5 102 9 102 9 0 24 -11 32 -24 18 -27 9 -57 -20 -73 -12 -7 -8 -20 23 -71 31
-51 42 -62 65 -62 15 0 27 2 27 6 0 3 -17 31 -39 62 -39 57 -39 58 -20 81 23
28 24 64 3 85 -15 16 -48 18 -122 9z"/>
<path d="M1964 3565 c-25 -17 -38 -69 -24 -96 6 -10 29 -28 50 -39 46 -23 55
-61 19 -80 -27 -15 -69 11 -70 43 0 20 -2 19 -11 -6 -14 -39 -5 -55 37 -63 48
-9 83 8 100 49 20 48 9 74 -39 99 -48 24 -55 33 -49 59 10 36 73 35 73 -2 0
-28 17 -23 23 6 3 18 -1 29 -14 35 -26 14 -72 12 -95 -5z"/>
<path d="M1468 3533 c-53 -14 -78 -33 -44 -33 18 0 67 -195 52 -210 -14 -14 3
-13 80 6 59 15 65 19 60 38 -3 12 -6 24 -6 29 0 4 -5 7 -10 7 -6 0 -10 -8 -8
-17 2 -11 -7 -21 -25 -27 -33 -12 -43 -3 -52 45 -5 29 -3 38 11 43 12 5 23 1
31 -10 19 -26 24 -13 11 32 -6 23 -13 33 -16 24 -6 -17 -22 -30 -39 -30 -12 0
-36 67 -28 80 10 16 56 17 65 1 12 -21 21 -11 13 17 -6 25 -16 26 -95 5z"/>
<path d="M2178 3538 c10 -13 9 -32 -8 -107 -11 -50 -20 -93 -20 -96 0 -3 -7
-5 -15 -5 -26 0 -16 -19 13 -26 15 -3 35 -8 45 -11 17 -4 24 11 8 21 -13 8 28
189 47 203 20 17 15 21 -38 29 -40 6 -44 6 -32 -8z"/>
<path d="M2319 3494 c-11 -32 -4 -44 14 -22 8 12 18 14 33 8 21 -8 21 -9 -11
-101 -22 -63 -38 -95 -51 -100 -17 -6 -17 -8 6 -17 65 -25 72 -25 65 -3 -4 13
4 54 21 104 33 102 30 98 57 88 16 -6 21 -15 19 -32 -3 -23 -2 -24 13 -4 26
33 14 46 -70 76 -44 16 -81 29 -83 29 -1 0 -7 -12 -13 -26z"/>
<path d="M1290 3478 c-21 -9 -22 -12 -8 -15 10 -3 20 -14 23 -26 7 -34 11
-137 5 -137 -3 0 -27 25 -53 56 -31 37 -46 63 -42 74 5 17 3 17 -40 1 -44 -16
-59 -31 -31 -31 8 0 47 -37 87 -82 39 -46 76 -87 80 -93 22 -23 28 15 20 125
-5 70 -4 120 2 128 12 15 -8 15 -43 0z"/>
<path d="M2545 3319 c-44 -44 -89 -84 -100 -88 -18 -7 -16 -10 14 -25 32 -17
33 -17 27 2 -4 12 1 25 12 36 18 16 21 16 51 -1 18 -10 29 -24 26 -31 -3 -8
-5 -20 -5 -29 0 -9 -6 -13 -15 -9 -33 12 -12 -15 26 -34 40 -21 63 -20 43 0
-7 7 -5 47 8 123 17 109 17 137 1 137 -5 0 -44 -36 -88 -81z m48 -11 c-9 -52
-15 -58 -37 -42 -19 14 -19 15 9 44 16 16 30 30 32 30 1 0 0 -15 -4 -32z"/>
<path d="M1018 3347 c-40 -23 -50 -40 -21 -35 23 4 125 -162 110 -180 -19 -24
1 -23 42 2 44 28 51 39 24 34 -24 -4 -128 169 -112 188 16 20 0 17 -43 -9z"/>
<path d="M2756 3290 c-17 -30 -11 -41 11 -19 8 8 17 8 31 -3 19 -13 18 -16
-38 -93 -37 -50 -64 -79 -74 -77 -26 5 -18 -11 18 -40 41 -33 49 -35 41 -8 -4
14 10 42 51 99 51 70 59 78 76 68 14 -9 17 -19 13 -37 l-7 -25 26 24 c15 14
23 28 19 31 -5 3 -24 17 -43 31 -19 14 -51 37 -71 52 l-35 26 -18 -29z"/>
<path d="M1681 3300 c-225 -32 -466 -132 -649 -269 -347 -263 -552 -674 -552
-1111 0 -214 42 -403 131 -589 72 -152 150 -262 274 -387 205 -206 428 -326
725 -390 132 -28 401 -26 539 4 271 61 488 175 682 360 214 204 365 485 413
771 21 123 21 340 0 462 -95 559 -519 1001 -1083 1130 -99 23 -376 34 -480 19z
m143 -31 c15 -12 26 -30 26 -44 0 -13 5 -27 10 -30 6 -3 10 1 10 10 0 23 37
73 59 80 10 3 34 -2 54 -10 31 -13 37 -20 37 -44 0 -33 -22 -61 -48 -61 -15
-1 -14 -3 3 -16 25 -19 100 -13 122 9 14 13 10 13 -30 -1 -53 -19 -66 -12 -47
22 8 15 10 39 7 62 l-6 36 52 -6 c47 -7 91 -26 59 -26 -9 0 -11 -13 -8 -45 5
-42 3 -46 -29 -72 -19 -16 -52 -31 -72 -34 l-38 -6 41 -2 c33 -1 48 5 72 27
16 15 34 26 39 25 5 -2 8 20 8 49 0 47 2 53 23 56 17 3 22 -2 23 -20 l0 -23
10 24 c9 22 10 22 34 7 13 -9 36 -16 50 -16 28 0 44 -25 27 -42 -8 -8 -15 -8
-27 2 -10 8 -15 9 -15 1 0 -6 0 -14 0 -18 -1 -18 37 -10 56 13 l21 25 51 -20
c155 -61 211 -102 251 -182 17 -34 31 -64 31 -66 0 -9 -29 -1 -40 12 -19 22
-115 75 -136 75 -13 -1 -8 -5 13 -15 17 -7 43 -32 58 -54 30 -49 42 -54 19 -9
l-16 32 48 -35 c66 -47 77 -73 65 -147 -9 -59 -37 -139 -46 -131 -2 3 1 24 6
49 8 35 6 56 -11 112 -12 39 -26 68 -34 68 -7 0 -21 10 -32 21 -10 12 -42 32
-71 45 -57 26 -70 39 -54 57 7 10 0 25 -29 57 -22 25 -39 42 -40 38 0 -4 11
-18 25 -32 29 -30 33 -80 8 -108 -17 -19 -5 -26 13 -8 7 7 26 4 60 -10 108
-47 154 -109 153 -210 0 -59 -11 -53 -23 11 -14 80 -119 159 -209 159 -58 0
-68 -17 -42 -67 20 -36 13 -68 -15 -68 -24 0 -53 52 -53 96 0 52 31 84 72 74
21 -5 24 -4 14 6 -7 7 -13 24 -13 39 0 29 -34 90 -51 90 -7 0 -4 -8 6 -20 10
-11 16 -22 14 -24 -7 -6 -48 -26 -53 -26 -11 0 -6 36 6 48 8 8 8 15 0 25 -15
18 -6 27 32 28 l31 2 -35 6 c-24 4 -36 2 -38 -6 -5 -21 -19 -15 -47 20 -21 25
-24 27 -15 7 7 -14 22 -32 33 -41 20 -16 20 -17 -11 -23 -21 -5 -32 -14 -34
-29 -5 -35 -49 -30 -59 7 -12 43 6 62 37 41 13 -9 24 -11 24 -6 0 6 -7 14 -16
19 -14 8 -14 13 -4 32 7 13 23 35 36 49 13 14 21 27 19 29 -8 9 -36 -22 -56
-61 -15 -29 -25 -38 -39 -34 -12 3 -21 -3 -28 -18 -6 -13 -27 -28 -48 -35 -40
-13 -128 -8 -149 10 -8 7 -17 4 -30 -10 -21 -24 -38 -25 -54 -6 -25 30 13 90
43 68 6 -5 21 -12 34 -15 19 -4 21 -3 12 8 -7 8 -8 19 -4 26 5 8 2 9 -9 2 -24
-13 -97 -3 -104 14 -3 8 -1 18 5 22 6 4 1 10 -12 17 -19 9 -22 8 -22 -10 1
-15 -6 -22 -23 -24 -30 -5 -51 20 -51 60 0 22 7 31 33 42 44 20 50 19 81 -5z
m66 2 c-16 -30 -28 -34 -39 -12 -16 29 -14 31 19 31 27 0 30 -2 20 -19z m-187
-27 c-3 -21 0 -45 7 -60 19 -34 6 -41 -47 -22 -39 14 -44 14 -31 2 24 -24 91
-29 129 -10 39 19 36 19 43 0 4 -9 2 -22 -4 -29 -9 -11 -6 -12 11 -8 34 9 19
-19 -22 -39 -58 -30 -158 -18 -179 22 -13 24 -50 29 -72 10 -26 -21 -22 -33 6
-15 20 14 25 14 35 1 10 -12 10 -21 -1 -43 -16 -34 -52 -38 -56 -6 -2 15 -13
24 -34 29 -31 6 -31 7 -11 23 11 9 26 27 33 41 9 20 6 18 -15 -7 -28 -35 -42
-41 -47 -20 -2 8 -15 10 -43 6 l-40 -6 36 -2 c42 -1 53 -9 38 -27 -7 -9 -6
-18 3 -33 17 -27 4 -37 -29 -22 -26 12 -26 14 -10 25 19 15 22 26 7 26 -16 0
-50 -62 -50 -90 0 -15 -5 -31 -11 -37 -7 -7 -4 -9 13 -6 15 3 34 -3 48 -15 36
-29 34 -103 -3 -139 -22 -22 -28 -24 -41 -13 -20 16 -20 31 1 68 25 43 12 62
-40 62 -105 0 -217 -95 -217 -184 0 -14 -4 -28 -10 -31 -6 -4 -10 15 -10 50 0
97 46 158 154 206 35 15 51 18 59 10 19 -19 31 -12 14 7 -27 30 -21 79 12 113
29 29 29 40 -1 17 -31 -26 -58 -74 -46 -86 15 -15 3 -29 -50 -52 -26 -12 -59
-33 -74 -47 -15 -15 -30 -24 -33 -21 -12 11 59 101 89 114 19 8 24 13 13 14
-23 0 -86 -32 -126 -65 -17 -15 -35 -25 -40 -23 -10 3 34 104 58 132 18 22
123 80 202 112 l62 25 21 -25 c13 -15 29 -24 41 -22 11 1 19 6 18 9 -2 4 -3
13 -3 20 -1 7 -6 5 -14 -6 -12 -15 -15 -15 -26 -2 -18 21 -5 45 25 45 14 0 37
7 50 16 24 15 25 15 34 -7 l10 -24 0 23 c1 18 6 23 24 20 20 -3 22 -9 22 -56
0 -29 3 -51 8 -49 5 1 22 -10 38 -25 22 -23 36 -28 71 -27 l43 2 -43 6 c-26 5
-53 18 -72 36 -26 25 -29 33 -24 72 4 30 1 43 -8 43 -7 0 -8 3 -2 9 10 10 43
17 86 20 25 1 26 -1 21 -35z m-223 -185 c0 -7 7 -17 15 -23 11 -8 14 -20 9
-44 -6 -31 -7 -32 -26 -15 -14 12 -17 24 -12 46 4 20 2 32 -7 38 -11 7 -10 9
4 9 9 0 17 -5 17 -11z m180 -4 c31 -11 52 -12 83 -5 60 14 83 12 101 -6 14
-14 16 -69 16 -459 0 -307 -3 -446 -11 -451 -36 -22 -231 251 -285 400 -27 75
-47 249 -42 376 3 90 4 95 25 98 13 2 32 17 43 33 12 16 23 29 24 29 2 0 22
-7 46 -15z m613 9 c-7 -3 -10 -18 -7 -37 6 -40 -21 -81 -36 -57 -5 8 -10 23
-10 33 0 25 32 66 50 66 9 0 10 -2 3 -5z m-1193 -49 c0 -8 -33 -40 -72 -71
-40 -32 -106 -91 -146 -131 -92 -92 -125 -95 -50 -5 56 69 247 234 260 226 4
-3 8 -11 8 -19z m1703 -74 c104 -87 198 -194 174 -199 -9 -2 -48 29 -89 71
-40 40 -106 99 -145 131 -40 31 -73 63 -73 70 0 21 12 27 29 13 9 -7 55 -46
104 -86z m-427 53 c-4 -14 -21 -38 -39 -54 -27 -24 -32 -35 -32 -73 0 -34 6
-52 24 -71 18 -20 21 -26 9 -26 -46 0 -98 88 -85 142 9 33 44 76 80 99 36 22
51 16 43 -17z m-911 -5 c65 -57 69 -151 8 -199 -32 -25 -52 -26 -30 -2 39 43
33 118 -12 160 -16 15 -32 37 -36 50 -10 33 26 29 70 -9z m-308 -42 c-8 -13
-27 -59 -42 -102 -22 -62 -26 -88 -21 -126 4 -27 5 -49 2 -49 -11 0 -36 113
-36 164 0 55 0 55 53 95 62 47 64 48 44 18z m-98 -21 c10 -12 4 -20 -33 -45
-24 -17 -67 -56 -95 -87 -42 -48 -53 -55 -65 -44 -14 11 -14 15 -1 34 15 22
165 155 176 155 4 1 12 -5 18 -13z m1751 -52 c97 -81 116 -107 94 -125 -12
-10 -23 -3 -65 45 -28 31 -71 70 -95 87 -37 25 -43 33 -33 45 6 8 13 14 16 14
2 0 40 -30 83 -66z m-1501 -1 c-12 -33 -6 -61 22 -96 17 -23 28 -27 69 -27 41
0 55 5 84 30 l34 30 5 -37 c5 -45 -7 -59 -64 -68 -46 -8 -134 15 -172 46 l-27
20 0 -23 c0 -13 7 -48 15 -78 11 -41 12 -64 4 -93 -12 -47 -3 -61 49 -77 20
-6 44 -14 52 -17 9 -3 -2 -11 -30 -22 -59 -22 -66 -53 -19 -79 18 -9 43 -28
56 -41 l23 -24 23 21 c33 31 90 30 124 -4 22 -22 25 -32 21 -75 -5 -48 -4 -50
43 -94 53 -49 64 -53 91 -29 16 15 18 15 24 1 13 -34 0 -62 -30 -65 -41 -5
-76 6 -76 24 0 8 -17 22 -37 30 -21 9 -50 27 -65 41 l-27 26 20 29 c25 35 19
71 -15 93 -35 23 -58 10 -54 -33 1 -19 -2 -37 -8 -39 -14 -5 -83 63 -95 93 -5
14 -19 28 -32 33 -33 13 -84 60 -117 107 l-29 41 24 23 c47 44 21 110 -43 110
-22 0 -23 3 -17 43 18 110 69 168 182 206 1 1 -2 -11 -8 -26z m77 13 c3 -8 -2
-26 -11 -40 -12 -17 -15 -36 -12 -56 8 -39 -16 -30 -34 13 -15 36 -15 63 2 83
15 18 48 18 55 0z m1054 -5 c17 -32 11 -68 -15 -98 l-25 -28 6 31 c4 20 0 43
-10 63 -9 17 -14 36 -11 41 10 17 44 11 55 -9z m119 -38 c41 -34 64 -81 76
-150 6 -41 5 -43 -17 -43 -64 0 -90 -66 -43 -110 l24 -23 -29 -41 c-34 -50
-88 -99 -115 -106 -11 -3 -26 -18 -33 -33 -17 -35 -82 -99 -96 -94 -6 2 -9 20
-8 39 4 43 -19 56 -54 33 -34 -22 -40 -58 -15 -93 l20 -29 -27 -26 c-15 -14
-44 -32 -64 -41 -21 -8 -38 -22 -38 -30 0 -18 -35 -29 -76 -24 -25 2 -29 8
-32 36 -2 23 1 32 12 32 8 0 18 -4 21 -10 12 -20 37 -9 84 35 47 44 48 46 43
94 -4 43 -1 53 21 75 34 34 91 35 125 4 l23 -23 17 22 c9 11 31 28 49 37 31
16 50 47 38 66 -3 5 -24 15 -46 21 -45 14 -42 21 17 37 57 17 68 31 55 79 -8
29 -7 52 4 93 8 30 15 65 15 78 l0 23 -27 -20 c-38 -31 -126 -54 -172 -46 -57
9 -69 23 -64 68 l5 37 34 -30 c60 -53 146 -38 174 30 10 24 10 37 1 56 -6 14
-11 27 -11 29 0 12 77 -24 109 -52z m-1519 -16 c0 -45 31 -149 51 -173 6 -8
19 -14 29 -14 23 0 15 -47 -10 -60 -32 -17 -59 19 -99 132 l-38 107 26 25 c14
14 29 26 33 26 5 0 8 -20 8 -43z m1732 20 l26 -22 -33 -98 c-48 -141 -78 -179
-113 -144 -23 23 -23 57 -1 57 10 0 25 10 33 23 21 32 46 125 46 169 0 44 5
46 42 15z m-1777 -130 c15 -45 34 -93 42 -105 8 -13 13 -26 10 -28 -12 -12
-38 12 -57 52 -11 24 -29 64 -41 88 -16 36 -18 49 -9 66 6 11 15 18 20 15 5
-3 21 -42 35 -88z m1845 47 c0 -7 -4 -15 -9 -18 -4 -3 -18 -32 -31 -65 -21
-58 -51 -101 -71 -101 -5 0 -2 14 6 30 9 17 25 61 37 98 11 37 25 76 30 86 10
19 11 19 24 1 8 -10 14 -24 14 -31z m-1957 -38 c24 -1 21 -15 -5 -26 -18 -7
-19 -9 -5 -9 10 -1 20 -8 23 -16 4 -8 10 -15 16 -15 5 0 7 4 3 10 -7 12 5 60
15 60 4 0 18 -26 30 -57 27 -69 55 -98 105 -107 46 -9 85 13 85 49 0 29 7 31
38 9 28 -20 28 -45 -1 -72 -67 -63 -200 -39 -249 44 -14 23 -23 31 -28 24 -6
-9 -13 -9 -28 -1 -11 6 -30 11 -41 11 -25 0 -26 8 -4 39 11 17 12 22 3 19 -8
-2 -18 -13 -24 -24 -6 -10 -21 -35 -33 -55 -13 -19 -23 -44 -23 -55 0 -10 -7
-28 -15 -38 -8 -11 -15 -27 -15 -36 0 -9 -11 -27 -25 -40 -14 -14 -25 -35 -25
-50 0 -14 -7 -35 -15 -46 -8 -10 -15 -33 -15 -50 0 -16 -5 -35 -12 -42 -17
-17 -35 -131 -42 -272 -2 -55 -1 -69 6 -53 9 19 48 40 48 25 0 -22 -26 -72
-36 -68 -16 6 -26 -62 -13 -86 6 -11 8 -34 5 -52 -4 -20 -1 -39 9 -53 10 -14
13 -32 9 -47 -4 -16 0 -33 10 -48 9 -12 16 -37 16 -54 0 -17 7 -37 15 -44 8
-7 15 -25 15 -40 0 -15 9 -39 20 -53 11 -14 20 -32 20 -40 0 -9 11 -29 25 -45
14 -17 25 -38 25 -47 0 -10 14 -33 30 -52 17 -18 30 -39 30 -46 0 -7 14 -23
30 -35 17 -13 30 -28 30 -35 0 -8 15 -27 33 -45 17 -17 40 -39 50 -49 56 -57
98 -93 107 -93 6 0 23 -14 37 -30 13 -16 33 -30 43 -30 10 0 25 -11 34 -25 10
-15 26 -25 39 -25 13 0 34 -11 47 -25 14 -15 35 -25 50 -25 15 0 35 -9 45 -20
10 -11 30 -20 45 -20 14 0 35 -7 46 -15 10 -8 33 -15 49 -15 17 0 36 -5 43
-12 23 -23 159 -38 332 -38 178 1 215 4 234 19 9 8 26 11 41 7 16 -4 34 -1 48
9 12 8 34 15 50 15 16 0 40 9 54 20 15 11 34 18 43 15 9 -3 28 4 43 15 14 11
39 23 57 26 17 4 36 15 43 25 7 10 25 21 39 24 14 4 36 18 49 31 12 13 28 24
36 24 7 0 25 13 39 29 14 16 36 32 49 35 13 3 27 15 30 26 4 11 20 27 36 36
16 8 34 26 39 40 5 13 21 29 35 36 13 6 27 20 31 32 3 12 19 33 35 48 16 15
29 33 29 41 0 7 11 24 25 37 14 13 25 31 25 41 0 10 11 31 25 47 14 17 25 39
25 50 0 10 9 31 20 45 11 14 20 36 20 50 0 13 7 30 15 37 8 7 15 27 15 44 0
17 6 40 14 51 15 22 27 102 41 260 5 62 5 76 -1 150 -2 33 -4 77 -4 97 0 20
-5 40 -10 43 -6 3 -10 25 -10 48 0 23 -7 51 -15 61 -8 11 -15 34 -15 52 0 17
-7 37 -15 44 -8 7 -15 24 -15 39 0 15 -20 54 -45 90 -27 38 -43 72 -40 81 3 9
-3 28 -13 41 -11 13 -29 43 -41 67 -17 33 -27 42 -49 43 l-27 1 30 13 c21 9
36 10 48 3 10 -5 25 -7 32 -4 9 3 30 -21 60 -67 211 -328 270 -739 160 -1122
-35 -123 -140 -332 -219 -436 -36 -48 -106 -125 -156 -172 -191 -180 -407
-292 -673 -349 -144 -30 -388 -30 -534 1 -279 59 -504 180 -703 380 -354 355
-484 864 -344 1349 27 96 114 285 164 357 32 46 83 78 110 68 8 -3 23 -6 33
-7z m1597 -56 c-6 -24 -10 -66 -8 -94 l3 -50 -69 -21 c-75 -22 -75 -29 -3 -58
48 -20 47 -40 -3 -72 -46 -29 -53 -30 -70 -10 -7 9 -29 15 -52 15 -32 0 -47
-7 -75 -35 -34 -34 -35 -39 -30 -85 6 -49 5 -50 -40 -90 -43 -38 -47 -39 -64
-24 -39 36 -76 -24 -45 -71 16 -25 16 -27 -14 -65 -18 -22 -40 -40 -49 -40
-10 0 -30 -9 -44 -20 -14 -11 -28 -20 -32 -20 -4 0 -18 9 -32 20 -14 11 -33
20 -43 20 -9 0 -31 18 -49 41 -31 38 -32 41 -16 59 37 40 -3 113 -43 77 -18
-17 -21 -15 -65 24 -44 38 -47 43 -41 80 12 74 -33 129 -106 129 -17 0 -41 -7
-55 -16 -22 -14 -26 -14 -64 10 -23 15 -41 33 -41 41 0 8 21 25 48 37 26 13
46 27 45 33 -1 5 -28 15 -60 22 -31 8 -60 18 -64 24 -4 7 -3 27 3 45 6 24 5
48 -7 86 -8 28 -13 54 -10 56 2 3 25 -3 51 -13 52 -20 112 -24 162 -12 30 8
32 7 32 -20 0 -49 66 -220 116 -304 61 -101 142 -200 196 -239 34 -25 44 -28
62 -18 34 18 131 122 177 189 76 113 159 311 159 382 0 17 4 18 38 11 54 -12
107 -7 155 14 23 11 46 16 50 12 5 -4 3 -27 -3 -50z m376 24 c5 -29 9 -33 16
-20 13 23 44 20 62 -6 20 -28 11 -37 -43 -42 -35 -3 -46 -9 -61 -34 -20 -32
-74 -65 -125 -76 -58 -12 -145 33 -145 75 0 17 35 49 52 49 5 0 8 -11 8 -25 0
-36 39 -58 85 -49 50 9 78 38 105 107 12 31 26 57 31 57 4 0 11 -16 15 -36z
m-1974 -86 c26 -8 48 -24 68 -51 16 -23 28 -43 25 -45 -3 -3 -28 7 -56 23 -42
23 -59 26 -95 21 -39 -5 -44 -3 -44 14 0 18 34 50 54 50 5 0 26 -5 48 -12z
m2086 -4 c12 -8 22 -24 22 -34 0 -17 -5 -19 -44 -14 -37 6 -53 2 -91 -20 -25
-15 -50 -26 -56 -24 -6 2 4 22 20 45 41 57 106 77 149 47z m-2068 -75 c50 -22
124 -89 146 -131 l15 -28 -42 0 c-35 0 -47 -6 -75 -37 -28 -30 -34 -33 -40
-20 -9 26 -24 20 -35 -13 -6 -16 -15 -30 -20 -30 -17 0 -9 44 14 68 14 16 17
23 7 20 -8 -2 -25 -22 -37 -44 -18 -31 -23 -35 -23 -17 0 12 5 25 10 28 6 3
10 11 10 17 0 6 -6 6 -15 -2 -31 -26 -28 2 3 33 30 30 36 31 106 31 l73 0 -26
33 c-48 61 -126 84 -168 50 -18 -13 -16 -52 2 -67 8 -7 15 -19 15 -26 0 -20
-27 -17 -50 6 -38 38 -18 119 34 140 32 13 47 11 96 -11z m2098 -15 c29 -33
30 -86 0 -114 -12 -11 -28 -20 -35 -20 -18 0 -16 25 2 40 18 15 20 54 2 68
-43 36 -119 13 -169 -51 l-26 -34 74 1 c70 1 76 -1 106 -31 31 -31 34 -59 3
-33 -9 8 -15 8 -15 2 0 -6 5 -14 10 -17 6 -3 10 -16 10 -28 0 -18 -5 -14 -23
17 -12 22 -29 42 -37 44 -10 3 -7 -4 8 -20 23 -25 29 -53 13 -62 -5 -3 -14 8
-20 24 -11 33 -26 39 -35 14 -5 -12 -13 -8 -40 20 -28 30 -40 36 -75 36 l-42
0 15 28 c17 32 91 105 125 122 69 35 113 33 149 -6z m-1947 -16 c27 -22 100
-138 94 -148 -4 -6 -12 -10 -19 -10 -24 0 -94 92 -111 148 -7 25 11 30 36 10z
m1704 -9 c-24 -74 -103 -165 -125 -143 -7 7 4 33 36 80 48 71 60 84 82 84 9 0
11 -7 7 -21z m-1556 -35 c21 -31 29 -50 23 -56 -14 -14 -28 -3 -63 44 -34 48
-36 58 -11 58 10 0 32 -20 51 -46z m1441 38 c0 -22 -64 -103 -79 -100 -23 5
-18 30 15 72 26 32 64 49 64 28z m-1730 -17 c16 -8 34 -24 40 -35 9 -17 7 -19
-17 -18 -16 1 -44 -2 -63 -6 -29 -6 -39 -4 -54 12 -14 16 -15 24 -6 41 13 25
58 28 100 6z m238 -39 c41 -55 44 -73 11 -55 -17 8 -69 86 -69 102 0 19 21 1
58 -47z m1532 46 c0 -12 -56 -98 -69 -106 -25 -16 -31 7 -9 34 13 16 31 40 41
54 17 25 37 34 37 18z m280 -13 c9 -17 8 -25 -6 -41 -15 -16 -25 -18 -54 -12
-19 4 -47 7 -63 6 -24 -1 -26 1 -17 18 26 48 120 67 140 29z m-2218 -52 c5
-27 -26 -72 -42 -62 -15 10 -12 46 7 67 22 24 30 23 35 -5z m2325 6 c8 -16 8
-25 4 -57 -2 -19 -41 28 -41 51 0 27 25 31 37 6z m-1810 -46 c4 -7 19 -17 32
-23 23 -10 23 -10 -19 -38 -41 -27 -79 -89 -80 -129 0 -16 -6 -14 -40 13 -61
48 -50 100 35 156 56 38 61 39 72 21z m1780 -9 c25 -24 30 -57 11 -77 -11 -10
-8 -16 12 -31 19 -15 22 -22 13 -31 -19 -19 -43 -3 -43 30 0 16 -5 33 -10 36
-6 3 -8 16 -4 29 3 14 -1 27 -10 35 -9 7 -13 17 -10 22 8 13 15 11 41 -13z
m-2271 -23 c-3 -10 -12 -15 -21 -11 -9 3 -26 -9 -44 -31 -26 -32 -31 -34 -37
-18 -10 24 8 49 37 53 13 2 30 13 37 24 17 23 39 9 28 -17z m298 -1 c37 -13
46 -20 40 -33 -20 -46 -16 -80 12 -109 16 -16 38 -33 49 -39 28 -16 12 -27
-29 -19 -28 5 -36 12 -41 36 -13 60 -109 92 -163 54 -18 -13 -23 -24 -20 -52
2 -28 -1 -36 -17 -38 -48 -7 -72 -17 -97 -41 -25 -24 -27 -29 -21 -92 3 -36
10 -74 15 -83 11 -22 56 -23 105 -3 34 15 38 14 56 -3 18 -19 17 -20 -37 -46
-80 -39 -156 -114 -156 -153 0 -66 63 -67 111 0 37 51 55 64 105 72 21 4 46
13 54 20 8 7 45 15 82 18 119 11 211 43 271 97 l34 29 23 -24 c15 -16 35 -25
53 -25 19 0 36 -9 49 -25 18 -23 26 -25 86 -24 89 2 117 14 137 55 18 39 28
41 73 14 41 -25 47 -25 101 2 43 23 43 23 55 3 6 -10 24 -32 39 -48 21 -22 33
-28 50 -22 24 7 25 7 83 -1 34 -5 44 -2 65 20 13 14 35 26 50 26 14 0 36 11
49 25 l23 24 30 -25 c16 -14 47 -34 69 -45 52 -26 180 -59 233 -59 23 0 50 -7
61 -15 10 -8 27 -15 37 -15 33 0 92 -38 110 -70 11 -17 34 -39 53 -48 33 -15
35 -15 55 4 15 15 18 28 13 48 -8 34 -93 109 -162 143 -44 21 -50 28 -40 40
13 15 47 14 105 -5 48 -16 73 6 73 66 0 26 4 54 10 62 21 33 -41 92 -112 105
-35 7 -36 8 -27 33 9 23 7 30 -16 49 -29 26 -86 30 -123 10 -12 -7 -30 -29
-40 -48 -15 -29 -23 -34 -57 -37 l-40 -3 48 37 c51 40 65 70 47 103 -15 28 -8
36 46 57 l47 18 29 -37 c17 -21 39 -37 50 -37 11 0 33 -11 50 -25 16 -14 33
-25 38 -25 15 0 40 31 40 50 0 44 19 24 35 -38 10 -37 22 -73 28 -79 5 -7 6
-24 3 -37 -3 -14 -2 -27 4 -31 5 -3 7 -12 3 -20 -3 -8 -2 -23 3 -32 8 -19 14
-57 13 -83 -2 -82 -7 -186 -9 -190 -1 -3 -10 -45 -19 -95 l-16 -90 -135 -3
c-103 -3 -164 1 -256 17 -67 12 -229 30 -360 41 -132 10 -264 21 -294 24 -30
2 -111 12 -180 20 -69 9 -198 20 -287 25 l-162 9 -34 36 c-19 20 -40 36 -46
36 -7 0 -26 -13 -42 -29 -29 -29 -39 -74 -19 -86 6 -4 10 7 10 24 0 24 4 31
19 31 17 0 18 -3 8 -30 -6 -17 -20 -33 -30 -36 -29 -9 -36 -40 -43 -206 l-6
-158 -142 0 c-147 1 -176 8 -176 45 0 18 -45 109 -68 137 -8 9 -11 25 -7 36 3
11 1 23 -5 27 -5 3 -10 17 -10 30 0 13 -5 27 -11 30 -6 4 -8 13 -5 20 3 8 -2
19 -10 26 -9 7 -13 21 -10 32 2 10 0 47 -6 80 -14 84 -13 293 1 310 9 11 17
63 23 147 0 8 6 22 13 30 8 8 15 29 17 45 4 26 5 27 12 10 27 -73 48 -84 91
-45 11 9 32 20 48 24 15 3 27 11 27 16 0 15 38 50 53 50 7 0 35 -7 61 -16z
m2034 -7 c15 -17 9 -49 -11 -61 -22 -14 -25 -8 -19 37 4 39 13 45 30 24z
m-1672 -126 c-8 -12 -110 20 -144 46 -21 17 -25 24 -15 34 10 10 16 9 31 -4
25 -23 39 -22 19 1 -11 12 -13 22 -7 28 12 12 125 -91 116 -105z m1037 107 c2
-7 -3 -22 -12 -33 -16 -20 -16 -20 5 -2 24 19 40 22 49 6 10 -16 -23 -47 -64
-60 -26 -9 -31 -14 -19 -18 14 -5 4 -20 -52 -79 -79 -83 -127 -142 -114 -142
15 1 44 26 44 38 0 6 17 28 38 50 20 21 65 68 100 105 67 71 86 80 98 45 7
-23 -5 -36 -106 -117 -23 -19 -49 -49 -56 -68 -14 -32 -29 -42 -36 -23 -2 6
-9 5 -18 -1 -11 -8 -12 -12 -2 -16 15 -6 16 -45 0 -61 -7 -7 -24 -12 -38 -12
-37 0 -50 18 -50 66 0 34 9 53 44 102 25 33 62 72 83 87 23 16 29 24 16 20
-43 -12 -35 17 18 70 59 57 65 61 72 43z m-1716 -23 c3 -9 -2 -24 -11 -34 -9
-10 -14 -25 -11 -34 8 -20 -15 -34 -26 -16 -14 22 -10 61 8 81 20 22 32 23 40
3z m761 3 c30 -30 -4 -98 -49 -98 -21 0 -21 1 -4 26 11 17 14 35 10 55 -5 24
-3 29 12 29 11 0 24 -5 31 -12z m798 -19 c-4 -20 0 -39 10 -55 15 -23 15 -24
-3 -24 -32 0 -63 29 -63 59 0 32 16 51 43 51 16 0 19 -5 13 -31z m-1633 -81
c-9 -10 -20 -18 -25 -18 -12 0 -10 38 3 62 11 21 12 21 24 -3 11 -20 11 -27
-2 -41z m665 -20 c37 -40 82 -85 100 -102 17 -16 32 -36 32 -44 0 -15 28 -41
44 -42 13 0 -41 67 -116 145 -59 60 -65 70 -47 73 32 5 95 -42 144 -109 36
-50 45 -69 45 -103 0 -48 -13 -66 -50 -66 -14 0 -31 5 -38 12 -16 16 -15 55 1
61 9 4 9 8 -2 15 -16 12 -41 -7 -41 -31 0 -35 -100 -97 -196 -120 -60 -15
-164 -29 -164 -22 0 20 15 31 35 28 38 -8 166 26 222 58 56 32 93 71 93 98 0
9 -8 3 -19 -15 -34 -56 -107 -97 -211 -119 -51 -11 -77 -12 -91 -5 -33 18 -22
25 57 38 42 6 100 23 129 36 49 22 95 69 95 96 0 10 3 10 15 0 9 -7 15 -8 15
-2 0 6 -36 40 -80 76 -73 61 -93 90 -73 109 16 17 38 2 101 -65z m1790 34 c4
-36 -3 -40 -29 -16 -20 18 -14 56 10 52 10 -2 17 -15 19 -36z m-2081 3 c11 -8
24 -31 27 -50 4 -20 10 -44 13 -53 3 -10 2 -13 -4 -7 -4 6 -36 11 -70 10 -60
0 -61 0 -67 30 -3 17 -8 40 -12 53 -4 14 -2 22 5 22 7 0 10 -4 7 -8 -3 -5 0
-26 7 -48 12 -39 12 -39 65 -40 57 -2 59 2 41 55 -11 30 -19 35 -79 44 -18 3
-16 5 10 6 20 0 45 -6 57 -14z m2063 -69 c0 -7 -6 -20 -13 -31 -17 -23 -41
-10 -33 18 3 11 0 29 -5 39 -5 10 -7 24 -3 30 8 13 54 -35 54 -56z m-2395 15
c0 -33 -19 -37 -33 -7 -12 27 -6 38 18 34 8 -2 15 -14 15 -27z m799 2 c17 -16
43 -35 56 -44 29 -19 26 -24 -15 -32 -26 -6 -34 -1 -62 34 -53 66 -39 94 21
42z m796 13 c0 -8 -15 -32 -32 -55 -29 -35 -37 -40 -63 -34 -41 8 -44 13 -15
32 14 9 38 28 55 43 33 30 55 36 55 14z m838 -53 c2 -21 -2 -32 -14 -37 -24
-9 -26 -3 -18 38 8 43 28 43 32 -1z m-2478 22 c0 -3 -9 -21 -19 -41 -19 -34
-20 -35 -31 -15 -14 27 3 61 30 61 11 0 20 -2 20 -5z m262 -62 c12 -27 24 -51
25 -54 2 -4 -18 -10 -44 -14 -26 -3 -63 -15 -80 -25 -30 -17 -33 -18 -33 -3 0
9 3 14 6 10 4 -3 18 0 33 7 14 7 43 16 64 20 42 8 42 8 23 39 -16 25 -30 67
-22 67 3 0 15 -21 28 -47z m200 17 c-7 -46 12 -60 79 -60 47 0 60 4 69 19 16
31 13 43 -9 31 -32 -16 -36 -12 -8 10 14 11 28 20 31 20 12 0 6 -46 -10 -68
-13 -19 -24 -22 -78 -22 -39 0 -67 5 -74 13 -15 18 -20 87 -7 87 7 0 10 -12 7
-30z m-430 -5 c-2 -11 -5 -32 -5 -47 -2 -36 -18 -38 -37 -5 -11 20 -12 30 -2
52 14 31 49 31 44 0z m148 3 c-39 -20 -45 -27 -43 -53 1 -28 1 -28 -9 -8 -6
12 -8 28 -5 36 6 15 64 46 87 47 8 0 -6 -10 -30 -22z m351 7 c19 -8 27 -14 19
-14 -14 0 -72 28 -59 29 4 0 22 -7 40 -15z m144 -44 c-15 -61 -89 -104 -206
-122 -75 -11 -76 -11 -102 15 -30 30 -41 31 -90 11 -51 -21 -87 -20 -87 4 0
15 10 19 51 24 64 8 89 29 89 74 0 34 0 34 38 27 41 -7 62 -20 62 -39 0 -37
73 -61 140 -46 48 11 79 42 80 80 0 20 2 22 16 10 10 -8 13 -21 9 -38z m1108
22 c9 -45 30 -64 81 -74 70 -13 136 10 136 46 0 19 21 32 63 40 l37 7 0 -35
c0 -44 25 -64 92 -73 38 -5 48 -10 48 -25 0 -15 -7 -19 -32 -19 -18 1 -44 7
-58 15 -36 21 -58 18 -86 -11 -24 -23 -31 -25 -83 -18 -148 18 -247 87 -226
155 9 27 22 23 28 -8z m651 -12 c14 -16 15 -20 2 -30 -20 -17 -36 -6 -36 25 0
29 11 31 34 5z m-1453 -20 c50 -51 36 -141 -26 -167 -49 -20 -60 -10 -35 30
30 49 26 89 -11 120 -35 30 -31 46 12 46 20 0 40 -10 60 -29z m564 19 c3 -6
-7 -22 -24 -36 -37 -31 -41 -71 -11 -120 25 -40 14 -50 -35 -30 -62 26 -76
116 -26 167 30 29 83 40 96 19z m218 -54 c27 -38 107 -73 201 -88 79 -13 90
-20 57 -38 -14 -7 -40 -6 -91 5 -140 30 -249 113 -209 162 11 12 14 13 18 2 2
-8 13 -27 24 -43z m-1786 21 c8 -17 7 -28 -2 -41 -24 -32 -46 4 -29 48 9 22
19 20 31 -7z m1066 3 c14 -11 31 -36 37 -56 11 -32 10 -39 -7 -63 -24 -32 -59
-36 -55 -6 7 54 4 107 -6 117 -31 31 -6 37 31 8z m387 12 c0 -4 -5 -13 -11
-19 -10 -10 -13 -62 -6 -118 1 -14 -5 -21 -20 -23 -34 -5 -58 48 -43 93 14 43
80 98 80 67z m1058 -8 c10 -18 4 -64 -8 -64 -4 0 -14 10 -22 23 -12 17 -13 26
-4 40 14 21 22 22 34 1z m-1564 -52 c7 -26 5 -36 -9 -52 -10 -11 -22 -20 -27
-20 -10 0 -11 94 -1 104 13 12 28 0 37 -32z m624 -6 c2 -21 1 -45 -3 -53 -5
-14 -8 -13 -25 2 -23 20 -24 32 -10 70 14 37 34 26 38 -19z m896 12 c20 -28
20 -49 2 -73 -12 -16 -16 -17 -30 -6 -12 10 -13 18 -6 32 6 10 8 30 4 44 -8
31 9 33 30 3z m-723 -12 c44 -57 227 -126 295 -113 13 2 24 3 24 1 0 -1 3 -9
6 -18 5 -13 -2 -14 -48 -10 -73 8 -165 32 -209 54 -54 28 -99 69 -99 91 0 25
8 24 31 -5z m-1693 -19 c2 -15 -1 -27 -6 -27 -16 0 -44 38 -37 50 12 20 40 6
43 -23z m2468 -51 c-4 -18 -13 -26 -27 -26 -16 0 -19 4 -14 18 4 9 10 27 13
40 4 21 6 22 20 9 9 -10 12 -24 8 -41z m-2142 28 c9 -8 16 -21 16 -27 0 -6 -7
-1 -16 11 -8 12 -25 22 -36 22 -21 0 -21 0 -2 -21 10 -11 24 -33 31 -47 7 -18
12 -21 12 -10 1 9 6 20 12 24 15 9 2 -36 -16 -54 -10 -11 -13 -6 -19 27 -4 25
-15 47 -31 59 -17 14 -21 22 -13 25 25 10 47 7 62 -9z m-331 -29 c4 -8 2 -17
-4 -20 -5 -4 -7 -22 -3 -42 5 -28 4 -35 -7 -31 -8 3 -21 16 -29 30 -11 21 -12
31 -2 52 13 29 37 34 45 11z m2418 -36 c7 -14 8 -24 1 -31 -15 -15 -32 0 -32
28 0 30 15 31 31 3z m-2123 -29 c1 -26 -5 -32 -36 -45 -20 -8 -54 -34 -76 -58
l-38 -42 6 33 c8 45 -1 40 -14 -9 -9 -33 -15 -40 -33 -37 -36 5 -34 43 6 83
19 19 44 35 55 35 11 0 33 7 48 15 16 8 37 15 47 15 9 0 17 4 17 9 0 6 -13 6
-32 -1 -18 -5 -41 -12 -50 -15 -35 -10 -17 8 25 27 60 28 74 26 75 -10z m1870
10 c41 -19 59 -37 25 -27 -10 3 -33 10 -50 15 -20 7 -33 7 -33 1 0 -5 8 -9 18
-9 9 0 30 -7 46 -15 15 -8 37 -15 48 -15 11 0 36 -16 55 -35 40 -40 42 -78 6
-83 -18 -3 -24 4 -33 37 -13 49 -22 54 -14 9 l6 -33 -38 42 c-22 24 -56 50
-76 58 -40 16 -54 30 -39 40 6 3 8 12 4 20 -7 21 23 19 75 -5z m-2219 -14 c11
-13 6 -66 -6 -66 -14 0 -29 35 -25 56 5 27 14 30 31 10z m2525 -2 c3 -8 0 -27
-8 -41 l-13 -27 -12 23 c-14 25 -6 61 14 61 7 0 16 -7 19 -16z m-54 -33 c16
-32 12 -58 -14 -79 -23 -18 -24 -20 -9 -42 13 -19 13 -24 2 -31 -9 -5 -19 -3
-28 6 -12 11 -12 19 -3 40 6 13 9 31 6 38 -3 8 1 19 9 25 8 7 12 23 9 37 -5
30 13 33 28 6z m-2415 -11 c3 -5 7 -33 9 -62 2 -29 7 -61 11 -71 9 -22 1 -31
-20 -23 -26 10 -38 55 -20 82 14 21 13 25 -6 43 -22 20 -19 41 6 41 8 0 16 -4
20 -10z m2460 -51 c8 -23 -16 -56 -40 -56 -16 0 -16 3 7 49 16 33 24 35 33 7z
m-2498 -29 c-9 -30 -14 -37 -24 -28 -14 11 -18 50 -6 61 3 4 14 7 23 7 15 0
16 -5 7 -40z m666 -6 c6 -31 5 -31 -34 -31 -25 0 -39 4 -39 13 0 20 19 27 38
13 14 -11 14 -10 -1 8 -18 21 -18 21 5 25 13 2 23 4 24 3 1 0 4 -14 7 -31z
m102 -20 c168 -71 477 -164 543 -164 15 0 60 -10 100 -21 78 -24 81 -34 21
-65 -25 -13 -36 -11 -126 17 -54 17 -143 51 -198 74 -242 104 -397 166 -402
161 -10 -10 31 -36 51 -31 11 2 15 2 8 -1 -21 -10 265 -182 416 -250 76 -34
106 -57 65 -49 -10 2 -50 9 -89 15 -60 11 -82 21 -145 66 -41 30 -99 71 -129
91 -30 21 -79 57 -108 80 -29 23 -61 44 -71 48 -12 4 -18 14 -17 30 1 31 6 31
81 -1z m310 -32 c94 -17 224 -38 290 -46 122 -16 289 -39 540 -76 77 -12 199
-26 270 -32 158 -12 158 -12 146 -35 -5 -10 -20 -40 -33 -66 l-22 -49 -21 24
c-34 39 -73 52 -109 35 -17 -8 -55 -22 -84 -30 -52 -15 -53 -15 -79 9 -14 13
-31 24 -36 24 -6 0 -26 14 -44 32 -33 32 -33 32 -63 15 -17 -10 -34 -16 -39
-13 -5 3 -14 0 -20 -8 -9 -11 -22 -11 -73 -1 -93 19 -216 51 -278 73 -30 10
-82 22 -115 26 -77 10 -315 75 -422 116 -46 18 -83 33 -83 35 0 9 127 -6 275
-33z m115 8 c74 -10 205 -24 290 -30 242 -17 365 -29 503 -51 92 -15 162 -20
248 -17 65 2 119 0 119 -4 0 -4 -5 -18 -12 -32 -8 -18 -17 -24 -32 -21 -12 2
-70 6 -130 10 -60 3 -130 10 -155 16 -43 9 -281 42 -636 90 -203 27 -386 57
-355 58 14 0 86 -8 160 -19z m-1181 -19 c18 -18 19 -61 2 -61 -16 0 -31 26
-31 52 0 33 4 34 29 9z m2461 -11 c0 -24 -10 -50 -19 -50 -4 0 -13 11 -19 24
-8 18 -7 27 6 39 18 19 32 13 32 -13z m-1792 -8 c5 -33 -27 -56 -49 -36 -10 9
-18 11 -26 3 -14 -14 -63 -1 -57 17 2 8 6 21 9 30 4 12 17 14 62 12 52 -3 58
-5 61 -26z m162 3 c27 -14 73 -34 102 -46 29 -11 98 -40 153 -64 55 -24 139
-55 188 -70 48 -14 87 -29 87 -33 0 -5 -17 -18 -38 -30 l-38 -21 -145 73
c-150 75 -391 216 -370 216 6 0 34 -11 61 -25z m1578 -27 c4 -33 -13 -68 -34
-68 -22 0 -28 27 -11 45 9 8 13 24 10 36 -5 17 -2 20 13 17 12 -2 20 -13 22
-30z m-1676 -14 c63 -68 94 -100 176 -177 l83 -78 -35 -14 c-24 -10 -72 -15
-149 -15 l-114 0 -7 92 c-9 131 -7 228 4 228 5 0 24 -16 42 -36z m-664 -2 c4
-25 -5 -27 -32 -7 -10 7 -15 19 -11 25 11 18 40 7 43 -18z m825 -89 c23 -18
73 -53 111 -79 70 -47 72 -52 20 -68 -17 -5 -36 7 -92 61 -38 37 -93 89 -121
115 -28 26 -51 51 -51 57 0 10 36 -14 133 -86z m-247 68 c5 9 9 7 14 -7 5 -12
1 -23 -9 -31 -9 -7 -11 -13 -5 -13 8 0 11 -16 9 -45 -2 -25 1 -48 7 -51 6 -4
5 -10 -3 -15 -9 -6 -10 -12 -4 -16 6 -5 10 -15 10 -23 0 -8 -4 -18 -10 -22 -6
-5 -5 -11 3 -16 7 -5 10 -16 6 -25 -4 -11 -1 -17 7 -17 9 -1 7 -6 -5 -15 -19
-14 -18 -15 13 -15 19 0 30 -4 26 -10 -3 -5 -1 -10 5 -10 14 0 9 -41 -5 -41
-5 0 -11 5 -14 12 -2 7 1 9 10 4 8 -5 7 -1 -3 10 -27 29 -42 8 -19 -28 14 -22
29 -33 48 -34 25 -2 26 -1 10 11 -15 12 -15 14 -2 19 9 4 19 -1 25 -13 15 -28
13 -30 -22 -30 -30 -1 -31 -2 -13 -12 19 -11 19 -11 0 -19 -14 -5 -3 -8 33 -8
65 -1 69 -19 5 -24 -44 -3 -43 -4 14 -5 34 -1 65 3 68 8 3 6 -1 10 -10 10 -22
0 -14 24 9 28 26 5 45 -16 26 -28 -13 -9 -13 -10 0 -10 8 0 26 -3 39 -7 17 -4
22 -3 17 6 -4 6 -11 9 -16 6 -5 -3 -11 -1 -15 5 -10 16 27 25 39 9 7 -9 37
-15 91 -17 88 -3 137 -12 142 -29 5 -14 -84 -23 -317 -30 -213 -7 -219 -7
-335 -3 -79 3 -80 3 -117 43 -45 50 -40 65 12 35 31 -18 42 -20 52 -10 9 9 8
12 -9 12 -12 0 -25 5 -28 10 -3 6 4 10 16 10 18 0 20 3 11 12 -15 15 3 38 32
38 20 1 20 2 -4 15 l-25 14 30 2 c17 1 23 3 13 6 -26 7 -22 17 15 36 20 10 26
16 15 16 -26 1 -22 21 4 21 21 0 21 0 2 15 -13 10 -14 14 -5 15 10 0 11 3 2
14 -10 11 -8 17 6 25 12 7 13 10 4 11 -7 0 -11 6 -8 14 3 8 1 17 -6 20 -8 3
-6 10 7 20 17 14 18 16 3 16 -9 0 -17 5 -17 10 0 6 7 10 15 10 18 0 20 20 3
20 -8 0 -5 7 6 15 17 13 18 18 8 40 -17 38 -15 46 12 39 13 -3 27 -1 31 6 5 8
12 7 25 -5 14 -13 20 -13 26 -4z m1794 -25 c0 -29 -22 -49 -44 -40 -21 8 -20
10 7 44 25 31 37 30 37 -4z m-2406 -8 l-5 -33 16 28 c19 34 40 31 40 -6 0 -14
6 -32 13 -38 6 -7 12 -17 12 -21 0 -15 -39 -8 -52 10 -7 9 -19 17 -25 18 -26
2 -31 4 -36 17 -7 19 11 57 27 57 12 0 14 -8 10 -32z m2330 -24 c8 -31 -8 -54
-25 -37 -13 13 -4 63 10 63 5 0 12 -12 15 -26z m-2292 -89 c-3 -21 -7 -23 -23
-14 -12 6 -19 21 -19 40 0 29 1 29 24 14 17 -11 22 -22 18 -40z m2330 38 c4
-20 -19 -63 -33 -63 -13 0 -11 54 3 68 17 17 26 15 30 -5z m-917 -13 c-3 -5 5
-17 18 -27 12 -10 22 -25 21 -33 0 -8 15 -30 35 -48 35 -33 25 -35 -13 -3 -18
15 -19 15 -14 0 6 -14 -10 -16 -135 -18 -77 -1 -145 -5 -151 -8 -5 -4 -7 1 -3
10 4 10 0 17 -11 20 -9 2 -7 3 6 2 25 -3 75 20 117 53 15 12 35 22 44 22 9 1
29 12 45 25 27 22 54 25 41 5z m107 0 c40 -11 88 -20 108 -20 34 -1 34 -1 15
-16 -23 -17 -109 -12 -133 9 -8 6 -31 19 -51 28 -49 24 -25 23 61 -1z m341
-50 c7 0 29 -16 48 -36 22 -23 27 -33 15 -28 -14 5 -17 4 -12 -4 4 -7 3 -12
-3 -12 -5 0 -13 5 -16 10 -4 6 -11 8 -16 4 -5 -3 -8 0 -7 7 2 6 -3 14 -11 17
-8 3 -11 0 -7 -7 21 -33 -168 -30 -220 4 l-28 18 35 18 c20 10 41 25 48 33 8
9 24 16 36 16 12 0 28 7 35 15 11 13 18 10 51 -20 22 -19 45 -35 52 -35z m415
27 c3 -26 -27 -67 -48 -67 -19 0 -24 32 -7 45 10 7 17 19 17 27 0 38 34 34 38
-5z m-808 3 c21 -11 42 -25 45 -31 7 -10 -51 17 -85 40 -25 18 -1 12 40 -9z
m-1405 -11 c4 -11 5 -23 2 -26 -8 -8 -57 28 -51 38 10 17 43 9 49 -12z m2041
-24 c4 -8 10 -15 16 -15 5 0 6 6 3 13 -4 6 6 -3 22 -21 22 -26 31 -30 40 -21
15 15 19 12 28 -24 6 -21 4 -27 -8 -27 -9 0 -20 8 -26 17 -5 10 -13 15 -17 11
-3 -4 -15 -3 -25 2 -10 6 -20 6 -23 1 -7 -11 -134 -2 -158 11 -31 15 -20 25
42 37 33 7 62 16 65 21 9 15 35 12 41 -5z m-600 -16 c19 -11 32 -25 29 -29 -3
-5 3 -13 12 -19 10 -5 15 -12 12 -15 -8 -9 -59 33 -56 46 1 6 -4 13 -12 16 -8
3 -11 0 -7 -7 5 -7 1 -8 -10 -4 -13 5 -14 8 -5 11 11 4 11 6 0 13 -8 5 -10 9
-5 9 5 0 24 -9 42 -21z m-1464 -29 c4 -41 -7 -51 -30 -28 -15 15 -15 41 0 56
20 20 26 14 30 -28z m2258 16 c0 -21 -35 -47 -54 -40 -15 6 -14 10 10 35 27
28 44 30 44 5z m-2210 -11 c0 -14 7 -28 15 -31 16 -7 20 -30 6 -38 -15 -10
-61 34 -61 58 0 26 8 36 27 36 7 0 13 -11 13 -25z m1038 -22 c7 -7 9 -13 3
-13 -5 0 -12 4 -16 9 -9 16 -43 9 -37 -8 4 -10 1 -12 -8 -6 -14 9 -101 8 -132
-1 -40 -12 -13 13 40 37 55 24 59 25 97 10 22 -9 46 -21 53 -28z m455 34 c33
-14 68 -47 49 -47 -5 0 -15 7 -22 15 -7 8 -18 15 -24 15 -13 0 -56 29 -43 30
4 0 22 -6 40 -13z m-1510 -78 c16 -7 25 -19 25 -35 0 -43 -37 -26 -52 24 -8
25 -6 26 27 11z m2111 -4 c11 -31 -24 -85 -56 -85 -13 0 -18 -8 -18 -30 0 -32
-1 -33 -24 -24 -25 9 -19 25 24 73 22 24 40 49 40 56 0 26 25 34 34 10z m63
-1 c3 -9 -5 -26 -21 -43 -14 -15 -26 -32 -26 -39 0 -7 -9 -21 -20 -32 -17 -17
-24 -18 -41 -9 -19 10 -18 12 20 37 31 20 41 33 41 52 0 41 34 66 47 34z
m-2095 -21 c10 -9 18 -22 18 -28 0 -7 7 -16 16 -19 8 -3 13 -10 9 -16 -3 -5 3
-17 15 -27 11 -10 20 -23 20 -30 0 -21 -29 -15 -56 13 -19 18 -24 31 -20 49 5
20 2 26 -19 31 -24 6 -32 23 -18 37 9 10 15 9 35 -10z m-1 -95 c13 -26 -7 -32
-31 -8 -23 23 -25 41 -8 58 10 10 15 8 21 -10 5 -13 13 -31 18 -40z m1919 -50
c0 -29 -28 -58 -57 -58 -29 0 -31 30 -2 37 11 3 25 17 30 30 10 28 29 22 29
-9z m-1859 -16 c12 -32 -8 -36 -36 -7 -15 14 -23 29 -20 35 9 15 47 -4 56 -28z
m504 28 c-3 -5 -13 -10 -21 -10 -8 0 -14 5 -14 10 0 6 9 10 21 10 11 0 17 -4
14 -10z m1415 -9 c0 -11 -10 -27 -22 -36 -22 -15 -23 -14 -26 7 -2 13 4 27 14
35 25 18 34 16 34 -6z m-1856 -10 c22 -24 7 -35 -29 -21 -23 9 -25 13 -15 25
16 20 23 19 44 -4z m43 -52 c3 -11 16 -25 29 -30 32 -12 30 -29 -3 -29 -34 0
-63 26 -63 57 0 29 30 31 37 2z m-45 -25 c16 -34 15 -35 -4 -32 -26 4 -43 30
-35 52 10 25 21 19 39 -20z m1787 -10 c-13 -16 -50 -15 -55 1 -2 6 11 17 29
25 25 12 33 12 35 2 2 -7 -2 -20 -9 -28z m-69 32 c0 -16 -21 -56 -30 -56 -17
0 -23 29 -10 45 11 14 40 21 40 11z m-53 -62 c6 -18 -38 -64 -61 -64 -12 0
-25 3 -29 6 -11 11 5 34 24 34 10 0 23 9 29 21 11 20 31 22 37 3z m-1522 -14
c10 -11 24 -20 31 -20 7 0 15 -9 19 -19 3 -11 16 -21 28 -23 28 -4 29 -32 1
-36 -29 -4 -77 36 -71 59 4 16 -1 19 -29 19 -36 0 -42 8 -22 28 16 16 22 15
43 -8z m1578 -9 c-5 -18 -46 -44 -56 -35 -11 11 7 46 27 54 27 10 35 5 29 -19z
m-1643 0 c14 -28 13 -33 -11 -29 -12 2 -28 13 -37 26 -14 21 -13 22 11 22 16
0 31 -8 37 -19z m90 -95 c0 -4 -9 -6 -20 -6 -24 0 -43 34 -35 61 6 19 9 18 31
-15 13 -19 24 -37 24 -40z m1394 36 c-7 -23 -28 -30 -39 -11 -9 13 26 52 36
42 5 -5 6 -18 3 -31z m-1084 14 c8 -2 -22 -4 -67 -5 -45 0 -84 3 -87 7 -4 7
120 5 154 -2z m207 7 c-20 -2 -52 -2 -70 0 -17 2 0 4 38 4 39 0 53 -2 32 -4z
m518 -4 c-22 -4 -74 -7 -115 -7 l-75 2 85 6 c129 10 153 9 105 -1z m133 4
c-10 -2 -26 -2 -35 0 -10 3 -2 5 17 5 19 0 27 -2 18 -5z m99 1 c-3 -3 -12 -4
-19 -1 -8 3 -5 6 6 6 11 1 17 -2 13 -5z m-874 -11 c-13 -2 -33 -2 -45 0 -13 2
-3 4 22 4 25 0 35 -2 23 -4z m210 0 c-7 -2 -19 -2 -25 0 -7 3 -2 5 12 5 14 0
19 -2 13 -5z m195 0 c-10 -2 -26 -2 -35 0 -10 3 -2 5 17 5 19 0 27 -2 18 -5z
m682 -12 c-14 -28 -49 -36 -68 -18 -13 14 -12 17 19 25 54 16 61 15 49 -7z
m-762 2 c-15 -2 -42 -2 -60 0 -18 2 -6 4 27 4 33 0 48 -2 33 -4z m435 -10 c-7
-2 -19 -2 -25 0 -7 3 -2 5 12 5 14 0 19 -2 13 -5z m187 -20 c0 -26 -31 -53
-62 -53 -21 0 -28 5 -28 20 0 15 7 20 25 20 14 0 28 7 31 15 8 20 34 19 34 -2z
m-1200 -8 c7 -8 18 -15 25 -15 7 0 18 -7 25 -15 7 -8 21 -15 31 -15 24 0 35
-20 18 -31 -35 -22 -89 4 -89 42 0 16 -6 18 -35 13 -26 -4 -35 -2 -35 9 0 30
39 38 60 12z m203 8 c-7 -2 -19 -2 -25 0 -7 3 -2 5 12 5 14 0 19 -2 13 -5z
m1055 -21 c-3 -17 -55 -48 -64 -39 -3 2 0 15 6 28 13 29 63 38 58 11z m-1324
-9 c11 -27 -10 -38 -38 -19 -34 22 -33 36 3 36 18 0 31 -6 35 -17z m570 -9
c26 -4 45 -11 43 -17 -5 -16 -97 -36 -126 -27 -14 4 -31 5 -38 3 -6 -2 -14 1
-18 7 -4 6 8 17 27 25 38 16 49 17 112 9z m596 -1 c0 -5 -9 -18 -18 -31 -16
-21 -20 -22 -31 -8 -11 13 -11 19 -1 31 13 15 50 21 50 8z m-1092 -33 c30 -29
31 -40 4 -40 -25 0 -50 29 -45 51 7 24 6 24 41 -11z m807 15 c-22 -8 -65 -15
-95 -15 -32 0 -63 -7 -74 -15 -13 -10 -42 -15 -80 -14 -59 1 -60 1 -31 14 17
7 50 15 75 17 25 1 51 9 58 16 9 8 44 12 100 12 l87 -1 -40 -14z m-470 -17
c19 -18 -23 -38 -56 -26 -17 6 -33 8 -36 4 -7 -7 -33 12 -33 24 0 19 105 17
125 -2z m590 4 c-24 -24 -145 -42 -145 -22 0 6 8 10 18 10 9 1 27 6 40 13 21
12 99 11 87 -1z m235 -17 c-11 -13 -60 -22 -60 -11 0 2 -3 11 -6 20 -4 11 3
15 33 18 42 3 51 -5 33 -27z m-140 10 c0 -8 -9 -24 -20 -35 -12 -12 -18 -24
-16 -29 3 -5 -2 -15 -12 -24 -14 -13 -22 -14 -41 -4 -34 17 -29 32 10 30 l34
-2 -28 10 c-36 14 -33 44 5 44 15 0 33 6 39 13 17 16 29 15 29 -3z m-866 -1
c24 -9 19 -21 -9 -28 -31 -8 -46 0 -38 19 6 16 21 19 47 9z m66 -29 c7 -9 20
-13 28 -10 21 8 35 -5 21 -21 -22 -27 -99 -8 -99 25 0 24 32 28 50 6z m212 -8
c10 -17 7 -17 -45 -4 -27 7 -45 16 -40 20 10 11 76 -2 85 -16z m333 8 c17 -7
23 -14 16 -14 -11 -1 -12 -4 -4 -12 8 -8 17 -7 31 2 24 15 37 7 28 -16 -7 -20
-48 -35 -76 -28 -17 5 -21 11 -17 31 5 24 4 24 -52 18 -63 -7 -84 1 -49 21 30
16 85 16 123 -2z m304 -16 c-6 -12 -21 -19 -40 -19 -30 0 -31 5 -7 36 4 6 19
9 33 6 21 -3 23 -7 14 -23z m-971 9 c18 -18 14 -28 -10 -28 -26 1 -61 24 -51
33 11 11 48 8 61 -5z m491 -14 c28 -8 5 -10 -63 -5 -38 3 -71 11 -73 17 -3 9
90 1 136 -12z m321 18 c0 -5 -9 -17 -20 -27 -26 -23 -52 -6 -30 20 13 16 50
21 50 7z m-729 -36 c28 -24 28 -36 1 -36 -22 0 -51 30 -45 46 7 19 10 18 44
-10z m166 9 c4 -14 -45 -36 -53 -24 -11 18 6 40 28 37 12 -2 23 -7 25 -13z
m49 -6 c3 -6 17 -9 30 -6 29 5 40 -8 24 -28 -17 -21 -64 -19 -83 3 -13 14 -14
21 -5 30 15 15 25 15 34 1z m189 -10 c4 -6 19 -7 36 -4 33 8 40 -10 12 -31
-26 -19 -57 -17 -78 6 -17 19 -20 19 -36 4 -22 -20 -51 -12 -43 11 5 11 17 15
40 13 18 -1 36 1 40 5 10 10 22 9 29 -4z m125 -14 c-15 -16 -27 -22 -33 -16
-17 17 1 41 29 41 l27 0 -23 -25z m173 -2 c16 -9 -16 -33 -44 -33 -33 0 -36 6
-13 31 14 16 30 16 57 2z m-595 -5 c19 -19 14 -28 -17 -28 -32 0 -61 24 -39
33 23 9 44 7 56 -5z m81 -15 c36 -21 38 -29 11 -38 -24 -8 -46 7 -53 35 -6 25
3 25 42 3z m412 -3 c18 0 19 -2 9 -15 -17 -21 -57 -19 -69 4 -13 23 -4 33 20
21 10 -6 28 -10 40 -10z m-93 -27 c-11 -13 -60 -18 -71 -7 -3 4 3 14 15 24 17
13 26 14 44 6 17 -8 20 -14 12 -23z m-203 13 c18 -13 18 -14 -3 -25 -16 -8
-27 -8 -47 1 -25 11 -25 13 -9 25 23 17 36 16 59 -1z m82 2 c38 -14 42 -24 13
-33 -24 -8 -60 11 -60 30 0 18 4 18 47 3z"/>
<path d="M1496 3198 c10 -12 27 -31 38 -43 18 -20 18 -20 6 5 -16 33 -41 60
-53 60 -6 0 -2 -10 9 -22z"/>
<path d="M1189 2359 c-42 -21 -89 -73 -89 -98 0 -9 13 -30 28 -45 l29 -27 17
45 c11 27 34 60 59 81 26 22 35 35 24 35 -9 0 -20 6 -24 14 -7 12 -14 11 -44
-5z"/>
<path d="M1510 1681 c25 -14 369 -89 465 -101 50 -7 158 -25 240 -40 83 -16
177 -31 210 -35 33 -4 93 -15 133 -25 85 -22 198 -38 299 -42 120 -4 92 9 -35
16 -66 4 -157 16 -203 27 -46 11 -115 25 -154 30 -38 6 -140 24 -225 40 -85
15 -206 35 -269 44 -63 8 -192 33 -287 55 -179 42 -199 45 -174 31z"/>
<path d="M1226 1148 c-15 -20 -22 -58 -12 -58 20 0 36 17 36 39 1 26 1 26 18
-7 20 -38 36 -33 21 6 -18 46 -40 53 -63 20z"/>
<path d="M2535 1404 c22 -19 31 -32 21 -28 -14 5 -17 4 -12 -5 5 -7 15 -10 23
-6 9 3 24 -2 35 -11 10 -10 21 -15 24 -12 5 6 -111 98 -124 98 -4 -1 11 -17
33 -36z"/>
<path d="M883 3261 c-26 -22 -29 -33 -8 -29 15 3 111 -105 97 -110 -4 -1 -48
11 -98 26 -81 26 -93 27 -112 14 -25 -16 -29 -30 -8 -28 7 0 43 -35 79 -79 49
-59 63 -83 55 -92 -14 -18 -2 -16 27 3 27 17 34 37 11 28 -9 -3 -33 18 -65 57
-28 35 -49 64 -47 66 2 2 14 -1 28 -6 76 -29 187 -58 198 -51 8 5 -10 34 -59
95 -52 63 -70 92 -66 106 8 24 -4 24 -32 0z"/>
<path d="M2977 3134 c7 -19 -125 -157 -143 -150 -26 10 -22 -10 8 -41 34 -35
54 -43 44 -17 -10 25 120 167 145 159 27 -9 23 7 -9 38 -31 30 -55 36 -45 11z"/>
<path d="M641 3041 c-22 -30 -22 -33 -4 -27 28 9 152 -98 153 -131 0 -17 -36
-53 -54 -53 -25 0 -146 103 -146 124 0 18 -3 17 -30 -9 -32 -31 -38 -48 -16
-43 8 2 46 -23 84 -54 84 -69 116 -75 156 -27 44 52 36 79 -44 150 -38 34 -70
72 -72 83 -3 19 -6 17 -27 -13z"/>
<path d="M3073 3000 c-12 -5 -29 -20 -38 -34 -14 -21 -15 -31 -6 -57 18 -53
14 -78 -14 -85 -15 -4 -32 -1 -40 6 -18 15 -20 51 -3 68 21 21 2 23 -25 2 -30
-24 -27 -41 11 -82 34 -37 79 -37 117 -2 28 26 28 30 9 108 -5 22 -3 32 11 42
36 27 79 -24 49 -57 -22 -24 -3 -25 26 -1 19 15 21 22 11 39 -13 25 -59 63
-75 62 -6 0 -21 -4 -33 -9z"/>
<path d="M3340 2662 c0 -14 -22 -28 -87 -57 -49 -21 -96 -38 -105 -37 -22 1
-22 4 3 -52 25 -57 57 -80 99 -71 32 7 66 47 56 64 -4 5 6 5 23 -2 23 -9 34
-7 55 6 32 22 32 31 0 101 -27 60 -44 78 -44 48z m30 -80 c0 -38 -46 -56 -69
-28 -10 12 -7 18 16 30 37 20 53 20 53 -2z m-94 -37 c12 -31 -46 -71 -78 -53
-27 13 -22 25 20 47 45 25 51 25 58 6z"/>
<path d="M353 2609 c-12 -31 -11 -33 55 -95 l67 -63 -92 -1 -91 0 -11 -31
c-14 -40 -14 -44 2 -31 18 14 198 -57 207 -83 6 -16 8 -14 18 15 15 42 15 45
-1 31 -10 -8 -31 -4 -83 16 -38 14 -72 29 -76 32 -5 4 35 5 88 3 52 -3 99 -1
104 4 5 5 -24 38 -65 74 -41 35 -73 66 -71 67 8 8 146 -52 146 -63 0 -27 17
-13 33 26 15 40 15 41 -4 35 -30 -10 -210 62 -202 81 3 8 1 14 -4 14 -5 0 -14
-14 -20 -31z"/>
<path d="M3217 2373 c-7 -14 13 -74 24 -68 5 4 7 11 4 16 -4 5 7 9 23 9 25 0
32 -6 41 -31 9 -27 8 -34 -7 -45 -9 -8 -26 -12 -38 -9 -20 4 -21 3 -11 -40 6
-25 14 -45 19 -45 4 0 8 4 8 10 0 5 48 42 106 81 61 41 102 75 97 80 -5 5 -60
13 -122 18 -62 6 -119 15 -126 21 -7 6 -15 7 -18 3z m193 -49 c0 -1 -15 -11
-32 -22 -24 -16 -35 -18 -40 -9 -17 27 -8 37 32 35 22 -1 40 -2 40 -4z"/>
<path d="M237 2248 c-5 -36 0 -49 12 -30 10 16 144 -2 179 -24 29 -19 29 -59
-1 -78 -18 -13 -35 -13 -97 -4 -45 6 -80 16 -87 26 -7 8 -14 14 -17 11 -9 -10
-15 -89 -7 -89 5 0 11 5 13 11 3 8 31 7 101 -2 90 -11 98 -11 117 6 22 20 35
73 25 105 -9 28 -54 47 -134 56 -42 4 -69 13 -81 26 -17 19 -18 18 -23 -14z"/>
<path d="M3505 2116 c-13 -18 -215 -34 -215 -17 0 6 -5 11 -10 11 -6 0 -8 -16
-4 -42 8 -50 12 -57 23 -39 12 19 201 32 208 14 8 -20 -16 -43 -43 -43 -13 0
-32 10 -43 21 l-20 21 -60 -37 c-46 -27 -61 -42 -61 -59 0 -12 3 -25 6 -28 3
-3 32 12 64 34 l58 40 31 -23 c30 -22 34 -22 59 -8 25 13 27 21 30 83 3 70 -6
97 -23 72z"/>
<path d="M390 1971 c0 -6 9 -11 20 -11 16 0 20 -7 20 -34 l0 -34 -97 -7 c-87
-7 -98 -6 -110 11 -11 16 -13 11 -13 -36 0 -47 2 -51 13 -36 12 16 27 17 125
14 l113 -3 -3 70 -3 70 -32 3 c-19 2 -33 -1 -33 -7z"/>
<path d="M3275 1795 c-8 -76 -1 -89 41 -82 28 4 28 5 7 12 -18 6 -23 15 -23
42 l0 34 48 -3 c41 -3 47 -6 44 -23 -2 -11 -10 -25 -19 -32 -13 -10 -9 -13 21
-19 35 -6 65 4 39 13 -7 3 -13 16 -13 29 0 21 4 24 40 24 39 0 40 -1 40 -35 0
-28 -4 -35 -20 -35 -11 0 -20 -4 -20 -10 0 -5 13 -10 29 -10 33 0 39 16 42
100 1 63 0 67 -15 47 -12 -15 -22 -16 -108 -7 -52 5 -102 12 -110 15 -13 5
-17 -7 -23 -60z"/>
<path d="M400 1770 c0 -5 9 -10 19 -10 36 0 44 -67 9 -74 -100 -21 -170 -27
-183 -16 -13 10 -15 8 -15 -11 0 -34 11 -69 21 -69 5 0 8 5 6 12 -3 18 193 49
212 34 12 -9 13 -1 7 52 -4 35 -10 70 -13 78 -6 16 -63 20 -63 4z"/>
<path d="M3253 1625 c-11 -34 -6 -44 13 -26 8 9 138 -20 151 -33 2 -2 -20 -12
-49 -21 -113 -37 -158 -57 -158 -69 0 -8 40 -24 103 -40 56 -15 108 -35 114
-44 16 -20 21 -15 30 29 6 31 5 33 -10 20 -14 -11 -26 -11 -69 -1 -87 21 -86
25 14 60 51 18 94 34 95 35 2 1 6 17 10 36 6 30 5 33 -9 21 -13 -11 -27 -10
-80 3 -104 26 -128 36 -128 51 0 27 -17 14 -27 -21z"/>
<path d="M480 1567 c0 -21 -190 -70 -208 -54 -12 10 -13 6 -7 -23 9 -45 24
-73 25 -47 0 9 2 17 4 17 2 0 48 12 101 26 78 21 99 23 106 13 15 -25 20 -1 8
40 -12 39 -29 56 -29 28z"/>
<path d="M474 1406 l-32 -11 19 -38 c21 -40 34 -50 24 -17 -5 15 0 22 21 30
33 13 54 -2 54 -39 0 -36 -24 -68 -70 -91 -69 -35 -122 -19 -135 42 -6 26 -3
35 16 50 l24 20 -30 -7 c-43 -9 -48 -18 -34 -64 33 -110 139 -134 222 -50 37
36 39 43 35 83 -6 48 -43 107 -67 105 -9 -1 -30 -7 -47 -13z"/>
<path d="M3161 1356 c-28 -45 -26 -78 5 -110 37 -36 79 -35 120 5 34 33 66 34
78 2 9 -22 -23 -55 -46 -47 -25 8 -23 -13 4 -27 19 -10 25 -8 45 15 37 44 30
97 -18 121 -40 21 -54 19 -92 -15 -37 -32 -56 -37 -75 -18 -30 30 5 81 48 72
l25 -6 -25 21 c-34 28 -45 26 -69 -13z"/>
<path d="M3073 1183 c-9 -16 -22 -34 -27 -42 -9 -12 -7 -13 12 -8 18 4 46 -8
108 -46 46 -29 82 -57 80 -64 -11 -27 9 -20 31 12 25 38 32 65 10 47 -17 -14
-191 94 -183 114 10 25 -13 15 -31 -13z"/>
<path d="M642 1185 c4 -22 -166 -127 -181 -112 -24 24 -21 -4 6 -44 24 -37 28
-40 31 -21 4 28 157 125 184 116 23 -7 23 -1 -4 41 -24 36 -41 46 -36 20z"/>
<path d="M2985 1057 c-42 -42 -45 -74 -9 -116 31 -37 55 -39 111 -9 39 21 44
21 59 6 32 -32 -16 -87 -51 -58 -8 7 -15 8 -15 3 0 -13 33 -43 47 -43 17 0 63
59 63 80 0 29 -48 80 -75 80 -13 0 -39 -9 -58 -20 -40 -24 -65 -18 -73 16 -11
43 42 74 74 42 7 -7 12 -8 12 -2 0 6 -11 21 -25 34 l-24 23 -36 -36z"/>
<path d="M678 1044 c-35 -18 -44 -55 -28 -105 11 -31 11 -41 0 -54 -30 -36
-87 6 -62 46 18 28 12 31 -18 9 -24 -18 -24 -21 -10 -47 9 -15 27 -34 42 -42
24 -14 30 -14 61 1 43 21 53 47 37 104 -10 35 -10 47 0 59 17 20 43 19 63 -3
21 -23 22 -46 2 -62 -24 -20 -10 -23 19 -5 35 23 33 40 -8 81 -37 37 -57 41
-98 18z"/>
<path d="M844 809 c-3 -6 -17 -8 -29 -5 -29 7 -39 -7 -25 -34 8 -15 8 -25 1
-33 -14 -17 34 -77 61 -77 39 0 90 -33 104 -66 11 -25 18 -31 34 -27 11 3 26
0 34 -6 11 -9 23 -8 51 6 34 16 38 22 39 61 2 35 -1 42 -17 42 -10 0 -21 9
-24 20 -3 11 -10 21 -17 21 -14 2 -44 5 -73 7 -15 1 -25 12 -33 37 -9 26 -21
39 -47 50 -42 18 -50 18 -59 4z m65 -23 c16 -3 37 -53 27 -64 -4 -3 -16 -1
-26 6 -25 16 -30 15 -30 -3 0 -8 7 -15 15 -15 8 0 15 -9 15 -20 0 -16 -7 -20
-35 -20 -36 0 -58 23 -61 65 -1 11 -5 29 -9 39 -7 16 -5 18 12 14 12 -3 27 -2
34 3 8 5 21 6 29 3 8 -3 22 -7 29 -8z m51 -102 c0 -8 -7 -14 -15 -14 -15 0
-21 21 -9 33 10 9 24 -2 24 -19z m100 0 c0 -7 6 -17 13 -21 8 -4 17 -23 20
-40 5 -28 4 -33 -12 -33 -10 0 -22 -7 -25 -16 -6 -15 -8 -15 -26 1 -11 10 -26
15 -34 12 -10 -4 -20 5 -31 25 -8 17 -15 35 -15 40 0 14 32 9 52 -9 20 -18 34
-12 25 12 -4 8 -15 15 -26 15 -21 0 -35 15 -27 28 8 13 86 1 86 -14z"/>
<path d="M2856 813 c-4 -5 -13 -8 -19 -8 -10 0 -39 -46 -50 -78 -1 -5 -24 -9
-50 -9 -41 0 -50 -3 -59 -24 -6 -13 -19 -24 -29 -24 -14 0 -17 -7 -14 -42 3
-37 8 -46 36 -61 26 -15 37 -16 55 -7 12 7 31 9 42 6 16 -6 21 -1 27 23 7 34
43 61 81 61 37 0 99 62 85 87 -6 12 -6 25 0 36 14 24 1 40 -26 33 -13 -3 -27
-2 -30 4 -7 12 -38 13 -49 3z m73 -24 c18 1 22 -3 16 -17 -4 -9 -9 -26 -10
-37 -7 -54 -16 -65 -56 -65 -32 0 -39 3 -39 20 0 11 7 20 15 20 8 0 15 7 15
15 0 18 -5 19 -30 3 -10 -7 -22 -9 -26 -5 -13 12 10 60 29 63 11 1 22 5 25 9
3 3 13 3 21 -1 9 -4 27 -6 40 -5z m-153 -108 c-4 -6 -16 -11 -27 -11 -11 0
-22 -7 -26 -15 -9 -24 5 -30 25 -12 20 18 52 23 52 9 0 -5 -7 -23 -15 -40 -11
-20 -21 -29 -31 -25 -8 3 -23 -2 -34 -12 -18 -16 -20 -16 -26 -1 -3 9 -15 16
-25 16 -16 0 -17 5 -12 33 3 17 12 36 20 40 7 4 13 14 13 22 0 9 14 15 38 17
40 3 58 -4 48 -21z m44 3 c0 -8 -7 -14 -15 -14 -15 0 -21 21 -9 33 10 9 24 -2
24 -19z"/>
<path d="M1180 671 c0 -6 4 -12 9 -16 15 -9 -63 -188 -85 -195 -16 -6 -15 -9
13 -23 18 -10 34 -13 37 -8 4 5 1 11 -6 13 -9 3 -4 25 17 77 16 40 31 74 34
76 3 2 4 -41 3 -96 -2 -59 0 -99 6 -99 5 0 38 32 72 70 35 39 65 69 67 67 8
-9 -57 -142 -71 -145 -26 -6 -18 -16 26 -34 40 -17 67 -16 39 2 -19 11 55 189
84 200 18 6 16 9 -13 24 l-32 17 -61 -66 c-34 -36 -64 -65 -68 -65 -3 0 -5 40
-3 89 l3 90 -30 15 c-35 19 -41 19 -41 7z"/>
<path d="M2523 668 c-24 -11 -32 -30 -11 -25 12 2 21 -32 32 -118 l6 -50 -54
60 c-39 42 -53 66 -49 79 3 10 1 17 -3 15 -5 -2 -26 -11 -46 -19 -37 -14 -51
-30 -26 -30 7 0 52 -39 100 -87 54 -54 91 -84 97 -78 5 6 3 56 -5 120 -7 61
-11 118 -8 128 6 19 -1 20 -33 5z"/>
<path d="M2322 583 c-6 -2 -15 -22 -18 -44 -9 -52 -18 -56 -45 -20 -28 38 -42
43 -69 24 l-22 -15 23 -12 c12 -6 35 -28 52 -48 29 -36 29 -37 17 -90 -7 -29
-18 -59 -23 -67 -9 -10 -7 -13 8 -10 13 3 24 20 35 56 l15 52 32 -38 c26 -31
37 -37 57 -34 15 3 26 8 26 12 0 3 -23 29 -51 56 -46 46 -49 53 -44 85 4 19
13 48 21 64 19 39 18 42 -14 29z"/>
<path d="M1498 534 c-37 -20 -60 -68 -60 -124 0 -53 20 -91 58 -108 35 -16 89
-15 104 3 10 12 6 13 -24 8 -30 -5 -40 -1 -67 26 -28 29 -31 36 -26 78 6 59
35 97 76 101 37 4 61 -12 61 -39 0 -28 17 -23 25 8 5 20 2 29 -12 37 -47 28
-96 32 -135 10z"/>
<path d="M2130 530 c-7 -5 -21 -27 -30 -50 l-16 -42 -27 41 c-29 44 -37 47
-68 31 -19 -11 -18 -12 8 -34 16 -13 36 -40 47 -59 l18 -35 -31 -58 c-17 -32
-29 -59 -27 -61 11 -11 35 14 52 55 l20 47 27 -42 c29 -46 30 -46 65 -37 23 7
23 7 3 25 -11 11 -32 39 -46 64 l-27 45 26 56 c28 61 29 68 6 54z"/>
<path d="M1670 511 c0 -5 5 -11 12 -13 19 -7 11 -199 -8 -214 -12 -10 -9 -13
18 -17 36 -5 49 0 30 12 -9 5 -12 32 -10 92 l3 84 33 -98 c19 -53 37 -95 41
-92 5 2 23 39 41 82 18 43 37 82 41 87 4 5 5 -27 2 -70 -4 -53 -11 -83 -21
-90 -12 -9 -5 -12 34 -17 53 -6 67 -1 44 13 -22 14 -15 200 8 218 14 10 12 12
-11 14 -15 0 -32 1 -38 2 -5 1 -26 -35 -45 -78 -19 -44 -36 -81 -38 -83 -2 -2
-17 35 -33 83 -29 87 -29 87 -66 91 -20 2 -37 -1 -37 -6z"/>
</g>
</svg>
